<svg xmlns:dc="http://purl.org/dc/elements/1.1/" xmlns:cc="http://creativecommons.org/ns#" xmlns:rdf="http://www.w3.org/1999/02/22-rdf-syntax-ns#" xmlns:svg="http://www.w3.org/2000/svg" xmlns="http://www.w3.org/2000/svg" xmlns:xlink="http://www.w3.org/1999/xlink" id="svg371005" viewBox="0 0 1024 768" height="768px" width="1024px" version="1.1">
  <metadata id="metadata371011">
    <rdf:rdf>
      <cc:work rdf:about="">
        <dc:format>image/svg+xml</dc:format>
        <dc:type rdf:resource="http://purl.org/dc/dcmitype/StillImage"></dc:type>
      </cc:work>
    </rdf:rdf>
  </metadata>
  <defs id="defs371009"></defs>
  <linearGradient spreadMethod="pad" y2="30%" x2="-10%" y1="120%" x1="30%" id="3d_gradient2-logo-bc67fc4e-35a4-4eff-83bf-9c73fd69241f">
    <stop id="stop370986" stop-opacity="1" stop-color="#ffffff" offset="0%"></stop>
    <stop id="stop370988" stop-opacity="1" stop-color="#000000" offset="100%"></stop>
  </linearGradient>
  <linearGradient gradientTransform="rotate(-30)" spreadMethod="pad" y2="30%" x2="-10%" y1="120%" x1="30%" id="3d_gradient3-logo-bc67fc4e-35a4-4eff-83bf-9c73fd69241f">
    <stop id="stop370991" stop-opacity="1" stop-color="#ffffff" offset="0%"></stop>
    <stop id="stop370993" stop-opacity="1" stop-color="#cccccc" offset="50%"></stop>
    <stop id="stop370995" stop-opacity="1" stop-color="#000000" offset="100%"></stop>
  </linearGradient>
  <g id="logo-group">
    <image xlink:href="" id="container" x="272" y="144" width="480" height="480" style="display: none;" transform="translate(0 0)"></image>
    <g id="logo-center" transform="translate(0 0)">
      <image xlink:href="" id="icon_container" x="0" y="0" style="display: none;"></image>
      <g id="slogan" style="font-style:normal;font-weight:300;font-size:32px;line-height:1;font-family:Montserrat;font-variant-ligatures:none;text-align:center;text-anchor:middle" transform="translate(0 0)"></g>
      <g id="title" style="font-style:normal;font-weight:normal;font-size:72px;line-height:1;font-family:'Brandmark Sans 21 Italic';font-variant-ligatures:normal;text-align:center;text-anchor:middle" transform="translate(0 0)">
        <path id="path371014" style="font-style:normal;font-weight:normal;font-size:72px;line-height:1;font-family:'Brandmark Sans 21 Italic';font-variant-ligatures:normal;text-align:center;text-anchor:middle" d="m 116.29081,0 h 38.808 l 4.248,-11.664 h -34.92 l 1.368,-3.816 -6.336,-3.888 h 34.92 l 4.248,-11.664 h -27.144 l 1.44,-3.888 -6.408,-3.816 h 42.696 l 4.248,-11.664 h -38.808 c -6.408,0 -13.464,5.184 -15.84,11.664 l -9.864,27.072 c -2.376,6.48 0.936,11.664 7.344,11.664 z" stroke-width="0" stroke-linejoin="miter" stroke-miterlimit="2" fill="#eb7e78" stroke="#eb7e78" transform="translate(0 302.5) translate(194.29972812500006 62.6) scale(0.75) translate(-108.17695 50.4)"></path>
        <path id="path371016" style="font-style:normal;font-weight:normal;font-size:72px;line-height:1;font-family:'Brandmark Sans 21 Italic';font-variant-ligatures:normal;text-align:center;text-anchor:middle" d="m 173.38456,0 h 34.92 c 6.408,0 13.464,-5.184 15.84,-11.664 l 2.808,-7.704 h -15.48 l -2.808,7.704 h -27.144 l 8.424,-23.256 -6.336,-3.816 h 34.92 l -2.808,7.704 h 15.48 l 2.808,-7.704 c 2.376,-6.48 -0.936,-11.664 -7.344,-11.664 h -34.92 c -6.408,0 -13.464,5.184 -15.84,11.664 l -9.936,27.072 c -2.376,6.48 1.008,11.664 7.416,11.664 z" stroke-width="0" stroke-linejoin="miter" stroke-miterlimit="2" fill="#de867e" stroke="#de867e" transform="translate(0 302.5) translate(239.32265562500004 62.6) scale(0.75) translate(-165.20752 50.4)"></path>
        <path id="path371018" style="font-style:normal;font-weight:normal;font-size:72px;line-height:1;font-family:'Brandmark Sans 21 Italic';font-variant-ligatures:normal;text-align:center;text-anchor:middle" d="m 261.81181,-50.4 h -15.552 L 227.97181,0 h 46.512 l 4.248,-11.664 h -31.032 z" stroke-width="0" stroke-linejoin="miter" stroke-miterlimit="2" fill="#d18f84" stroke="#d18f84" transform="translate(0 302.5) translate(288.6458731250001 62.6) scale(0.75) translate(-227.97181 50.4)"></path>
        <path id="path371020" style="font-style:normal;font-weight:normal;font-size:72px;line-height:1;font-family:'Brandmark Sans 21 Italic';font-variant-ligatures:normal;text-align:center;text-anchor:middle" d="m 313.70244,-50.4 h -15.552 L 279.86244,0 h 15.48 z" stroke-width="0" stroke-linejoin="miter" stroke-miterlimit="2" fill="#c4978a" stroke="#c4978a" transform="translate(0 302.5) translate(329.8138456250001 62.6) scale(0.75) translate(-279.86244 50.4)"></path>
        <path id="path371022" style="font-style:normal;font-weight:normal;font-size:72px;line-height:1;font-family:'Brandmark Sans 21 Italic';font-variant-ligatures:normal;text-align:center;text-anchor:middle" d="m 369.48444,-50.4 h -46.584 L 304.61244,0 h 15.48 l 4.248,-11.664 -6.336,-3.816 h 38.736 c 6.408,0 13.536,-5.256 15.912,-11.664 l 4.176,-11.592 c 2.376,-6.48 -0.936,-11.664 -7.344,-11.664 z m -43.056,11.664 h 34.92 l -4.248,11.592 h -27.144 l 2.808,-7.776 z" stroke-width="0" stroke-linejoin="miter" stroke-miterlimit="2" fill="#b7a090" stroke="#b7a090" transform="translate(0 302.5) translate(350.6263456250001 62.6) scale(0.75) translate(-304.61244 50.4)"></path>
        <path id="path371024" style="font-style:normal;font-weight:normal;font-size:72px;line-height:1;font-family:'Brandmark Sans 21 Italic';font-variant-ligatures:normal;text-align:center;text-anchor:middle" d="m 380.01781,-38.736 h 19.368 L 385.27381,0 h 15.552 l 12.672,-34.92 -6.336,-3.816 h 27.144 l 4.248,-11.664 h -54.288 z" stroke-width="0" stroke-linejoin="miter" stroke-miterlimit="2" fill="#aaa896" stroke="#aaa896" transform="translate(0 302.5) translate(409.43037312500013 62.6) scale(0.75) translate(-380.01781 50.4)"></path>
        <path id="path371026" style="font-style:normal;font-weight:normal;font-size:72px;line-height:1;font-family:'Brandmark Sans 21 Italic';font-variant-ligatures:normal;text-align:center;text-anchor:middle" d="m 459.38994,-50.4 h -15.552 L 425.54994,0 h 15.48 z" stroke-width="0" stroke-linejoin="miter" stroke-miterlimit="2" fill="#9db09c" stroke="#9db09c" transform="translate(0 302.5) translate(445.8294706250001 62.6) scale(0.75) translate(-425.54994 50.4)"></path>
        <path id="path371028" style="font-style:normal;font-weight:normal;font-size:72px;line-height:1;font-family:'Brandmark Sans 21 Italic';font-variant-ligatures:normal;text-align:center;text-anchor:middle" d="m 461.24394,0 h 34.92 c 6.408,0 13.464,-5.184 15.84,-11.664 l 2.808,-7.704 h -15.48 l -2.808,7.704 h -27.144 l 8.424,-23.256 -6.336,-3.816 h 34.92 l -2.808,7.704 h 15.48 l 2.808,-7.704 c 2.376,-6.48 -0.936,-11.664 -7.344,-11.664 h -34.92 c -6.408,0 -13.464,5.184 -15.84,11.664 l -9.936,27.072 c -2.376,6.48 1.008,11.664 7.416,11.664 z" stroke-width="0" stroke-linejoin="miter" stroke-miterlimit="2" fill="#91b9a3" stroke="#91b9a3" transform="translate(0 302.5) translate(468.71719062500006 62.6) scale(0.75) translate(-453.0669 50.4)"></path>
        <path id="path371030" style="font-style:normal;font-weight:normal;font-size:72px;line-height:1;font-family:'Brandmark Sans 21 Italic';font-variant-ligatures:normal;text-align:center;text-anchor:middle" d="m 564.46269,0 h 34.92 c 6.408,0 13.464,-5.184 15.84,-11.664 l 2.808,-7.704 h -15.48 l -2.808,7.704 h -27.144 l 8.424,-23.256 -6.336,-3.816 h 34.92 l -2.808,7.704 h 15.48 l 2.808,-7.704 c 2.376,-6.48 -0.936,-11.664 -7.344,-11.664 h -34.92 c -6.408,0 -13.464,5.184 -15.84,11.664 l -9.936,27.072 c -2.376,6.48 1.008,11.664 7.416,11.664 z" stroke-width="0" stroke-linejoin="miter" stroke-miterlimit="2" fill="#84c1a9" stroke="#84c1a9" transform="translate(0 302.5) translate(548.3812531250002 62.6) scale(0.75) translate(-556.28565 50.4)"></path>
        <path id="path371032" style="font-style:normal;font-weight:normal;font-size:72px;line-height:1;font-family:'Brandmark Sans 21 Italic';font-variant-ligatures:normal;text-align:center;text-anchor:middle" d="m 631.32031,-50.4 8.064,31.032 -7.056,19.368 h 15.552 l 7.056,-19.368 30.672,-31.032 h -15.552 l -18.36,18.576 -4.896,-18.576 z" stroke-width="0" stroke-linejoin="miter" stroke-miterlimit="2" fill="#77c9af" stroke="#77c9af" transform="translate(0 302.5) translate(606.9072481250001 62.6) scale(0.75) translate(-631.32031 50.4)"></path>
        <path id="path371034" style="font-style:normal;font-weight:normal;font-size:72px;line-height:1;font-family:'Brandmark Sans 21 Italic';font-variant-ligatures:normal;text-align:center;text-anchor:middle" d="m 680.90019,0 h 34.92 c 6.408,0 13.464,-5.184 15.84,-11.664 l 2.808,-7.704 h -15.48 l -2.808,7.704 h -27.144 l 8.424,-23.256 -6.336,-3.816 h 34.92 l -2.808,7.704 h 15.48 l 2.808,-7.704 c 2.376,-6.48 -0.936,-11.664 -7.344,-11.664 h -34.92 c -6.408,0 -13.464,5.184 -15.84,11.664 l -9.936,27.072 c -2.376,6.48 1.008,11.664 7.416,11.664 z" stroke-width="0" stroke-linejoin="miter" stroke-miterlimit="2" fill="#6ad2b5" stroke="#6ad2b5" transform="translate(0 302.5) translate(640.2093781250002 62.6) scale(0.75) translate(-672.72315 50.4)"></path>
        <path id="path371036" style="font-style:normal;font-weight:normal;font-size:72px;line-height:1;font-family:'Brandmark Sans 21 Italic';font-variant-ligatures:normal;text-align:center;text-anchor:middle" d="m 769.32744,-50.4 h -15.552 L 735.48744,0 h 46.512 l 4.248,-11.664 h -31.032 z" stroke-width="0" stroke-linejoin="miter" stroke-miterlimit="2" fill="#5ddabb" stroke="#5ddabb" transform="translate(0 302.5) translate(689.5325956250001 62.6) scale(0.75) translate(-735.48744 50.4)"></path>
        <path id="path371038" style="font-style:normal;font-weight:normal;font-size:72px;line-height:1;font-family:'Brandmark Sans 21 Italic';font-variant-ligatures:normal;text-align:center;text-anchor:middle" d="m 798.32206,0 h 38.808 l 4.248,-11.664 h -34.92 l 1.368,-3.816 -6.336,-3.888 h 34.92 l 4.248,-11.664 h -27.144 l 1.44,-3.888 -6.408,-3.816 h 42.696 l 4.248,-11.664 h -38.808 c -6.408,0 -13.464,5.184 -15.84,11.664 l -9.864,27.072 c -2.376,6.48 0.936,11.664 7.344,11.664 z" stroke-width="0" stroke-linejoin="miter" stroke-miterlimit="2" fill="#50e3c1" stroke="#50e3c1" transform="translate(0 302.5) translate(732.8231656250002 62.6) scale(0.75) translate(-790.2082 50.4)"></path>
        <path id="path371040" style="font-style:normal;font-weight:normal;font-size:72px;line-height:1;font-family:'Brandmark Sans 21 Italic';font-variant-ligatures:normal;text-align:center;text-anchor:middle" d="m 864.48781,-15.48 h -15.48 l -1.368,3.816 c -2.376,6.48 0.936,11.664 7.344,11.664 h 34.92 c 6.408,0 13.536,-5.184 15.84,-11.664 l 2.808,-7.704 c 2.376,-6.408 -0.936,-11.664 -7.344,-11.664 h -31.032 l 1.368,-3.888 -6.336,-3.816 h 34.92 l -1.44,3.816 h 15.552 l 1.368,-3.816 c 2.376,-6.48 -0.936,-11.664 -7.344,-11.664 h -34.92 c -6.408,0 -13.536,5.184 -15.84,11.664 l -2.88,7.704 c -2.304,6.408 1.008,11.664 7.416,11.664 h 31.032 l -2.808,7.704 h -27.144 z" stroke-width="0" stroke-linejoin="miter" stroke-miterlimit="2" fill="#43ebc7" stroke="#43ebc7" transform="translate(0 302.5) translate(777.5694781250002 62.6) scale(0.75) translate(-846.86995 50.4)"></path>
      </g>
      <image xlink:href="" id="icon" x="0" y="0" style="display: none;"></image>
    </g>
  </g>
</svg>