<svg xmlns:dc="http://purl.org/dc/elements/1.1/" xmlns:cc="http://creativecommons.org/ns#" xmlns:rdf="http://www.w3.org/1999/02/22-rdf-syntax-ns#" xmlns:svg="http://www.w3.org/2000/svg" xmlns="http://www.w3.org/2000/svg" xmlns:xlink="http://www.w3.org/1999/xlink" id="svg746684" viewBox="0 0 1024 768" height="768px" width="1024px" version="1.1">
  <metadata id="metadata746690">
    <rdf:rdf>
      <cc:work rdf:about="">
        <dc:format>image/svg+xml</dc:format>
        <dc:type rdf:resource="http://purl.org/dc/dcmitype/StillImage"></dc:type>
      </cc:work>
    </rdf:rdf>
  </metadata>
  <defs id="defs746688"></defs>
  <linearGradient spreadMethod="pad" y2="30%" x2="-10%" y1="120%" x1="30%" id="3d_gradient2-logo-b5b64410-09a5-4aa6-890f-eaf26bbe5661">
    <stop id="stop746665" stop-opacity="1" stop-color="#ffffff" offset="0%"></stop>
    <stop id="stop746667" stop-opacity="1" stop-color="#000000" offset="100%"></stop>
  </linearGradient>
  <linearGradient gradientTransform="rotate(-30)" spreadMethod="pad" y2="30%" x2="-10%" y1="120%" x1="30%" id="3d_gradient3-logo-b5b64410-09a5-4aa6-890f-eaf26bbe5661">
    <stop id="stop746670" stop-opacity="1" stop-color="#ffffff" offset="0%"></stop>
    <stop id="stop746672" stop-opacity="1" stop-color="#cccccc" offset="50%"></stop>
    <stop id="stop746674" stop-opacity="1" stop-color="#000000" offset="100%"></stop>
  </linearGradient>
  <g id="logo-group">
    <image xlink:href="" id="container" x="272" y="144" width="480" height="480" style="display: none;" transform="translate(0 0)"></image>
    <g id="logo-center" transform="translate(0 0)">
      <image xlink:href="" id="icon_container" x="0" y="0" style="display: none;"></image>
      <g id="slogan" style="font-style:normal;font-weight:300;font-size:32px;line-height:1;font-family:'Montserrat Light Alt1';font-variant-ligatures:none;text-align:center;text-anchor:middle" transform="translate(0 0)"></g>
      <g id="title" style="font-style:normal;font-weight:500;font-size:72px;line-height:1;font-family:'Raleway Medium Alt1';font-variant-ligatures:none;text-align:center;text-anchor:middle" transform="translate(0 0)">
        <path id="path746693" style="font-style:normal;font-weight:500;font-size:72px;line-height:1;font-family:'Raleway Medium Alt1';font-variant-ligatures:none;text-align:center;text-anchor:middle" d="m 245.7755,-7.056 c -2.232,-1.008 -4.104,-2.448 -5.616,-4.32 -1.584,-1.872 -2.88,-3.96 -3.744,-6.408 -0.936,-2.448 -1.368,-4.968 -1.368,-7.776 0,-2.52 0.36,-5.04 1.224,-7.488 0.792,-2.448 1.944,-4.536 3.456,-6.408 1.44,-1.872 3.24,-3.312 5.4,-4.464 2.088,-1.152 4.392,-1.728 7.056,-1.728 3.168,0 5.976,0.72 8.568,2.16 2.52,1.44 4.536,3.672 6.12,6.624 l 4.968,-3.456 c -1.728,-3.24 -4.176,-5.976 -7.344,-8.064 -3.168,-2.016 -7.272,-3.096 -12.168,-3.096 -3.456,0 -6.624,0.72 -9.504,2.088 -2.952,1.44 -5.472,3.312 -7.56,5.688 -2.16,2.376 -3.816,5.112 -4.968,8.208 -1.224,3.096 -1.8,6.336 -1.8,9.792 0,3.384 0.576,6.552 1.8,9.648 1.224,3.168 2.88,5.904 5.04,8.352 2.088,2.448 4.536,4.392 7.488,5.832 2.88,1.512 6.048,2.232 9.504,2.232 3.6,0 6.912,-0.864 10.008,-2.736 v -6.048 c -3.024,2.016 -6.192,2.952 -9.504,2.952 -2.592,0 -4.896,-0.504 -7.056,-1.584 z m 11.088,-18.432 v 4.896 h 11.016 V 0 h 5.472 v -25.488 z" stroke-width="0" stroke-linejoin="miter" stroke-miterlimit="2" fill="#988181" stroke="#988181" transform="translate(0 300.88) translate(225.9441387500001 63.95) scale(0.75) translate(-228.4955 51.48)"></path>
        <path id="path746695" style="font-style:normal;font-weight:500;font-size:72px;line-height:1;font-family:'Raleway Medium Alt1';font-variant-ligatures:none;text-align:center;text-anchor:middle" d="m 302.14025,-32.04 v -5.76 c -0.288,0 -0.576,-0.072 -0.864,-0.072 h -1.224 c -2.448,0.216 -4.68,1.152 -6.768,2.736 -2.16,1.584 -3.816,3.672 -5.112,6.264 v -8.712 h -5.904 V 0 h 6.336 v -23.184 c 1.008,-2.736 2.664,-4.824 5.112,-6.408 2.448,-1.512 5.256,-2.304 8.424,-2.448 z" stroke-width="0" stroke-linejoin="miter" stroke-miterlimit="2" fill="#968681" stroke="#968681" transform="translate(0 300.88) translate(276.0237012500001 74.156) scale(0.75) translate(-282.26825 37.872)"></path>
        <path id="path746697" style="font-style:normal;font-weight:500;font-size:72px;line-height:1;font-family:'Raleway Medium Alt1';font-variant-ligatures:none;text-align:center;text-anchor:middle" d="m 318.0725,0.72 c 2.88,0 5.616,-0.576 8.208,-1.728 2.592,-1.152 4.68,-2.88 6.408,-5.184 l 0.144,2.664 c 0.144,1.08 0.576,2.016 1.296,2.736 0.72,0.72 1.728,1.08 3.024,1.08 0.432,0 0.936,0 1.368,-0.072 0.432,0 0.936,-0.072 1.656,-0.216 v -5.472 c -1.368,0 -2.016,-0.792 -2.016,-2.304 v -15.336 c 0,-4.752 -1.44,-8.496 -4.176,-11.16 -2.736,-2.592 -6.624,-3.96 -11.52,-3.96 -4.896,0 -9.792,1.656 -14.616,4.896 l 2.088,4.104 c 4.176,-2.88 8.136,-4.392 11.952,-4.392 3.168,0 5.616,0.936 7.344,2.664 1.728,1.728 2.592,4.176 2.592,7.2 v 3.024 c -1.44,-0.576 -3.096,-1.008 -4.968,-1.368 -1.872,-0.288 -3.744,-0.504 -5.544,-0.504 -2.304,0 -4.464,0.288 -6.408,0.864 -1.944,0.576 -3.6,1.368 -5.04,2.376 -1.44,1.008 -2.52,2.232 -3.24,3.672 -0.792,1.44 -1.152,2.952 -1.152,4.68 0,1.728 0.288,3.24 0.936,4.68 0.648,1.44 1.512,2.664 2.664,3.672 1.152,1.08 2.448,1.944 4.032,2.52 1.512,0.576 3.168,0.864 4.968,0.864 z m 1.656,-4.752 c -1.152,0 -2.232,-0.144 -3.24,-0.576 -1.008,-0.36 -1.944,-0.864 -2.664,-1.584 -0.72,-0.648 -1.296,-1.44 -1.728,-2.376 -0.432,-0.864 -0.576,-1.872 -0.576,-2.952 0,-2.16 0.936,-3.888 2.952,-5.256 2.016,-1.296 4.608,-2.016 7.776,-2.016 3.312,0 6.48,0.648 9.576,1.8 v 5.544 c 0,1.008 -0.504,1.944 -1.368,2.808 -1.008,1.44 -2.52,2.52 -4.464,3.384 -1.944,0.864 -4.032,1.224 -6.264,1.224 z" stroke-width="0" stroke-linejoin="miter" stroke-miterlimit="2" fill="#938b82" stroke="#938b82" transform="translate(0 300.88) translate(303.1768887500001 73.886) scale(0.75) translate(-305.4725 38.232)"></path>
        <path id="path746699" style="font-style:normal;font-weight:500;font-size:72px;line-height:1;font-family:'Raleway Medium Alt1';font-variant-ligatures:none;text-align:center;text-anchor:middle" d="m 357.96837,0 h 6.768 l 14.832,-37.584 h -6.048 l -11.952,32.04 -11.88,-32.04 h -6.552 z" stroke-width="0" stroke-linejoin="miter" stroke-miterlimit="2" fill="#919082" stroke="#919082" transform="translate(0 300.88) translate(341.1747912500001 74.372) scale(0.75) translate(-343.13637 37.584)"></path>
        <path id="path746701" style="font-style:normal;font-weight:500;font-size:72px;line-height:1;font-family:'Raleway Medium Alt1';font-variant-ligatures:none;text-align:center;text-anchor:middle" d="m 385.76825,0 h 6.336 v -37.584 h -6.336 z m 0,-44.64 h 6.336 v -7.92 h -6.336 z" stroke-width="0" stroke-linejoin="miter" stroke-miterlimit="2" fill="#8e9582" stroke="#8e9582" transform="translate(0 300.88) translate(382.89870125000016 63.14) scale(0.75) translate(-385.76825 52.56)"></path>
        <path id="path746703" style="font-style:normal;font-weight:500;font-size:72px;line-height:1;font-family:'Raleway Medium Alt1';font-variant-ligatures:none;text-align:center;text-anchor:middle" d="m 421.802,-1.872 -1.512,-5.04 c -0.432,0.288 -1.152,0.576 -2.16,1.008 -1.008,0.432 -2.16,0.576 -3.384,0.576 -1.152,0 -2.088,-0.288 -2.88,-0.936 -0.864,-0.576 -1.296,-1.584 -1.368,-3.024 v -23.328 h 8.424 v -4.968 h -8.424 v -12.528 h -6.336 v 12.528 h -5.112 v 4.968 h 5.112 v 25.272 c 0,2.736 0.792,4.68 2.52,5.976 1.656,1.296 3.672,1.872 5.976,1.872 1.008,0 1.944,-0.072 2.88,-0.216 0.936,-0.144 1.8,-0.36 2.592,-0.648 0.792,-0.288 1.512,-0.504 2.16,-0.792 0.576,-0.288 1.08,-0.504 1.512,-0.72 z" stroke-width="0" stroke-linejoin="miter" stroke-miterlimit="2" fill="#8c9a82" stroke="#8c9a82" transform="translate(0 300.88) translate(402.6100137500001 64.976) scale(0.75) translate(-399.05 50.112)"></path>
        <path id="path746705" style="font-style:normal;font-weight:500;font-size:72px;line-height:1;font-family:'Raleway Medium Alt1';font-variant-ligatures:none;text-align:center;text-anchor:middle" d="m 437.3225,0.72 c 2.88,0 5.616,-0.576 8.208,-1.728 2.592,-1.152 4.68,-2.88 6.408,-5.184 l 0.144,2.664 c 0.144,1.08 0.576,2.016 1.296,2.736 0.72,0.72 1.728,1.08 3.024,1.08 0.432,0 0.936,0 1.368,-0.072 0.432,0 0.936,-0.072 1.656,-0.216 v -5.472 c -1.368,0 -2.016,-0.792 -2.016,-2.304 v -15.336 c 0,-4.752 -1.44,-8.496 -4.176,-11.16 -2.736,-2.592 -6.624,-3.96 -11.52,-3.96 -4.896,0 -9.792,1.656 -14.616,4.896 l 2.088,4.104 c 4.176,-2.88 8.136,-4.392 11.952,-4.392 3.168,0 5.616,0.936 7.344,2.664 1.728,1.728 2.592,4.176 2.592,7.2 v 3.024 c -1.44,-0.576 -3.096,-1.008 -4.968,-1.368 -1.872,-0.288 -3.744,-0.504 -5.544,-0.504 -2.304,0 -4.464,0.288 -6.408,0.864 -1.944,0.576 -3.6,1.368 -5.04,2.376 -1.44,1.008 -2.52,2.232 -3.24,3.672 -0.792,1.44 -1.152,2.952 -1.152,4.68 0,1.728 0.288,3.24 0.936,4.68 0.648,1.44 1.512,2.664 2.664,3.672 1.152,1.08 2.448,1.944 4.032,2.52 1.512,0.576 3.168,0.864 4.968,0.864 z m 1.656,-4.752 c -1.152,0 -2.232,-0.144 -3.24,-0.576 -1.008,-0.36 -1.944,-0.864 -2.664,-1.584 -0.72,-0.648 -1.296,-1.44 -1.728,-2.376 -0.432,-0.864 -0.576,-1.872 -0.576,-2.952 0,-2.16 0.936,-3.888 2.952,-5.256 2.016,-1.296 4.608,-2.016 7.776,-2.016 3.312,0 6.48,0.648 9.576,1.8 v 5.544 c 0,1.008 -0.504,1.944 -1.368,2.808 -1.008,1.44 -2.52,2.52 -4.464,3.384 -1.944,0.864 -4.032,1.224 -6.264,1.224 z" stroke-width="0" stroke-linejoin="miter" stroke-miterlimit="2" fill="#8a9f83" stroke="#8a9f83" transform="translate(0 300.88) translate(431.61438875000016 73.886) scale(0.75) translate(-424.7225 38.232)"></path>
        <path id="path746707" style="font-style:normal;font-weight:500;font-size:72px;line-height:1;font-family:'Raleway Medium Alt1';font-variant-ligatures:none;text-align:center;text-anchor:middle" d="m 480.788,0.72 c 4.536,0 8.136,-1.008 10.872,-3.096 2.664,-2.016 4.032,-4.824 4.032,-8.352 0,-1.584 -0.36,-2.88 -0.936,-4.032 -0.576,-1.08 -1.512,-2.016 -2.736,-2.88 -1.224,-0.792 -2.736,-1.512 -4.608,-2.088 -1.872,-0.576 -4.032,-1.224 -6.48,-1.8 -1.584,-0.36 -2.952,-0.72 -4.104,-1.08 -1.152,-0.288 -2.016,-0.72 -2.736,-1.152 -0.72,-0.432 -1.296,-0.936 -1.584,-1.512 -0.288,-0.576 -0.432,-1.296 -0.432,-2.16 0,-2.16 0.792,-3.672 2.376,-4.68 1.584,-1.008 3.6,-1.512 5.904,-1.512 2.016,0 4.032,0.36 6.048,1.08 1.944,0.72 3.744,1.728 5.328,3.096 l 2.88,-3.816 c -1.728,-1.44 -3.744,-2.664 -6.192,-3.6 -2.448,-0.864 -5.112,-1.368 -7.92,-1.368 -2.016,0 -3.96,0.288 -5.688,0.792 -1.728,0.504 -3.24,1.224 -4.536,2.232 -1.296,1.008 -2.376,2.232 -3.096,3.672 -0.72,1.44 -1.08,3.096 -1.08,4.968 0,1.512 0.216,2.736 0.72,3.744 0.432,1.008 1.224,1.872 2.304,2.592 1.008,0.72 2.376,1.368 4.032,1.872 1.584,0.576 3.528,1.08 5.832,1.656 1.728,0.432 3.312,0.864 4.68,1.224 1.296,0.432 2.448,0.864 3.312,1.296 0.864,0.504 1.512,1.08 1.944,1.728 0.432,0.648 0.648,1.44 0.648,2.304 0,2.016 -0.864,3.528 -2.448,4.608 -1.584,1.08 -3.744,1.584 -6.48,1.584 -2.448,0 -4.824,-0.36 -6.984,-1.224 -2.232,-0.864 -4.464,-2.088 -6.624,-3.816 l -2.736,4.248 c 2.088,1.8 4.608,3.168 7.56,4.104 2.88,0.936 5.904,1.368 8.928,1.368 z" stroke-width="0" stroke-linejoin="miter" stroke-miterlimit="2" fill="#87a483" stroke="#87a483" transform="translate(0 300.88) translate(471.0475137500002 73.886) scale(0.75) translate(-464.3 38.232)"></path>
        <path id="path746709" style="font-style:normal;font-weight:500;font-size:72px;line-height:1;font-family:'Raleway Medium Alt1';font-variant-ligatures:none;text-align:center;text-anchor:middle" d="m 522.47937,0 h 6.48001 v -22.896 h 22.96799 v -5.4 h -29.448 z m 0,-51.12 v 16.344 h 6.48001 V -45.36 h 27.288 v -5.76 z" stroke-width="0" stroke-linejoin="miter" stroke-miterlimit="2" fill="#85aa83" stroke="#85aa83" transform="translate(0 300.88) translate(524.4320412500001 64.22) scale(0.75) translate(-522.47937 51.12)"></path>
        <path id="path746711" style="font-style:normal;font-weight:500;font-size:72px;line-height:1;font-family:'Raleway Medium Alt1';font-variant-ligatures:none;text-align:center;text-anchor:middle" d="m 580.71838,-32.04 v -5.76 c -0.288,0 -0.576,-0.072 -0.86401,-0.072 h -1.224 c -2.448,0.216 -4.68,1.152 -6.76799,2.736 -2.16001,1.584 -3.81601,3.672 -5.11201,6.264 v -8.712 h -5.904 V 0 h 6.336 v -23.184 c 1.00801,-2.736 2.664,-4.824 5.112,-6.408 2.44801,-1.512 5.25601,-2.304 8.42401,-2.448 z" stroke-width="0" stroke-linejoin="miter" stroke-miterlimit="2" fill="#82af83" stroke="#82af83" transform="translate(0 300.88) translate(562.95729125 74.156) scale(0.75) translate(-560.84637 37.872)"></path>
        <path id="path746713" style="font-style:normal;font-weight:500;font-size:72px;line-height:1;font-family:'Raleway Medium Alt1';font-variant-ligatures:none;text-align:center;text-anchor:middle" d="m 596.65062,0.72 c 2.88,0 5.616,-0.576 8.208,-1.728 2.592,-1.152 4.68001,-2.88 6.408,-5.184 l 0.144,2.664 c 0.144,1.08 0.576,2.016 1.29601,2.736 0.72,0.72 1.72799,1.08 3.024,1.08 0.432,0 0.93599,0 1.36799,-0.072 0.432,0 0.936,-0.072 1.65601,-0.216 v -5.472 c -1.36801,0 -2.01601,-0.792 -2.01601,-2.304 v -15.336 c 0,-4.752 -1.43999,-8.496 -4.17599,-11.16 -2.736,-2.592 -6.62401,-3.96 -11.52,-3.96 -4.89601,0 -9.792,1.656 -14.61601,4.896 l 2.08801,4.104 c 4.17599,-2.88 8.13599,-4.392 11.952,-4.392 3.168,0 5.61599,0.936 7.34399,2.664 1.72801,1.728 2.592,4.176 2.592,7.2 v 3.024 c -1.44,-0.576 -3.096,-1.008 -4.968,-1.368 -1.87199,-0.288 -3.744,-0.504 -5.544,-0.504 -2.30399,0 -4.464,0.288 -6.408,0.864 -1.94399,0.576 -3.6,1.368 -5.03999,2.376 -1.44001,1.008 -2.52,2.232 -3.24001,3.672 -0.792,1.44 -1.152,2.952 -1.152,4.68 0,1.728 0.288,3.24 0.936,4.68 0.64801,1.44 1.512,2.664 2.664,3.672 1.15201,1.08 2.448,1.944 4.03201,2.52 1.51199,0.576 3.168,0.864 4.96799,0.864 z m 1.65601,-4.752 c -1.15201,0 -2.23201,-0.144 -3.24,-0.576 -1.00801,-0.36 -1.94401,-0.864 -2.66401,-1.584 -0.71999,-0.648 -1.296,-1.44 -1.728,-2.376 -0.432,-0.864 -0.576,-1.872 -0.576,-2.952 0,-2.16 0.936,-3.888 2.952,-5.256 2.01601,-1.296 4.60801,-2.016 7.77601,-2.016 3.312,0 6.47999,0.648 9.57599,1.8 v 5.544 c 0,1.008 -0.50399,1.944 -1.368,2.808 -1.008,1.44 -2.51999,2.52 -4.464,3.384 -1.944,0.864 -4.03199,1.224 -6.26399,1.224 z" stroke-width="0" stroke-linejoin="miter" stroke-miterlimit="2" fill="#80b484" stroke="#80b484" transform="translate(0 300.88) translate(590.1104787500001 73.886) scale(0.75) translate(-584.05062 38.232)"></path>
        <path id="path746715" style="font-style:normal;font-weight:500;font-size:72px;line-height:1;font-family:'Raleway Medium Alt1';font-variant-ligatures:none;text-align:center;text-anchor:middle" d="m 624.42012,-18.864 c 0,2.664 0.432,5.184 1.36801,7.56 0.93599,2.376 2.23199,4.464 3.95999,6.192 1.65601,1.8 3.672,3.24 6.048,4.248 2.30401,1.08 4.89601,1.584 7.77601,1.584 1.87199,0 3.6,-0.216 5.32799,-0.72 1.728,-0.432 3.24,-1.08 4.68,-1.944 1.368,-0.792 2.59201,-1.8 3.6,-2.952 1.00801,-1.152 1.87201,-2.376 2.448,-3.816 l -6.192,-1.872 c -0.28799,0.864 -0.79199,1.584 -1.44,2.304 -0.72,0.72 -1.512,1.296 -2.37599,1.8 -0.86401,0.576 -1.87201,1.008 -2.952,1.296 -1.08001,0.288 -2.16001,0.432 -3.24,0.432 -1.72801,0 -3.38401,-0.36 -4.89601,-1.08 -1.512,-0.72 -2.808,-1.656 -3.95999,-2.952 -1.15201,-1.296 -2.01601,-2.808 -2.664,-4.536 -0.72,-1.728 -1.00801,-3.528 -1.00801,-5.544 0,-2.016 0.28801,-3.816 0.93601,-5.544 0.64799,-1.656 1.51199,-3.096 2.664,-4.392 1.07999,-1.224 2.37599,-2.16 3.95999,-2.88 1.512,-0.72 3.168,-1.08 4.89601,-1.08 2.08799,0 4.03199,0.504 5.75999,1.512 1.728,1.008 3.024,2.376 4.03201,4.104 l 6.19199,-1.944 c -1.44,-2.736 -3.45599,-4.968 -6.19199,-6.624 -2.736,-1.656 -5.90401,-2.52 -9.648,-2.52 -2.88,0 -5.544,0.576 -7.84801,1.584 -2.304,1.008 -4.31999,2.448 -5.976,4.176 -1.728,1.728 -3.024,3.816 -3.88799,6.12 -0.93601,2.376 -1.36801,4.896 -1.36801,7.488 z" stroke-width="0" stroke-linejoin="miter" stroke-miterlimit="2" fill="#7eb984" stroke="#7eb984" transform="translate(0 300.88) translate(630.13760375 73.886) scale(0.75) translate(-624.42012 38.232)"></path>
        <path id="path746717" style="font-style:normal;font-weight:500;font-size:72px;line-height:1;font-family:'Raleway Medium Alt1';font-variant-ligatures:none;text-align:center;text-anchor:middle" d="m 686.31763,-1.872 -1.51201,-5.04 c -0.432,0.288 -1.15199,0.576 -2.16,1.008 -1.008,0.432 -2.15999,0.576 -3.384,0.576 -1.15199,0 -2.08799,-0.288 -2.88,-0.936 -0.864,-0.576 -1.29599,-1.584 -1.36799,-3.024 v -23.328 h 8.424 v -4.968 h -8.424 v -12.528 h -6.336 v 12.528 h -5.11201 v 4.968 h 5.11201 v 25.272 c 0,2.736 0.79199,4.68 2.52,5.976 1.65599,1.296 3.672,1.872 5.976,1.872 1.008,0 1.94399,-0.072 2.87999,-0.216 0.93601,-0.144 1.8,-0.36 2.592,-0.648 0.79201,-0.288 1.51201,-0.504 2.16,-0.792 0.576,-0.288 1.08,-0.504 1.51201,-0.72 z" stroke-width="0" stroke-linejoin="miter" stroke-miterlimit="2" fill="#7bbe84" stroke="#7bbe84" transform="translate(0 300.88) translate(669.24672875 64.976) scale(0.75) translate(-663.56562 50.112)"></path>
        <path id="path746719" style="font-style:normal;font-weight:500;font-size:72px;line-height:1;font-family:'Raleway Medium Alt1';font-variant-ligatures:none;text-align:center;text-anchor:middle" d="m 703.78212,0.72 c 3.24,0 6.264,-0.72 9,-2.232 2.73601,-1.512 4.89601,-3.672 6.624,-6.552 l 0.144,4.392 c 0,1.152 0.432,2.088 1.29601,2.808 0.86399,0.72 1.87199,1.08 3.168,1.08 0.36,0 0.71999,0 1.15199,0 0.432,0 1.008,-0.072 1.72801,-0.216 v -5.472 c -1.36801,0 -2.01601,-0.792 -2.01601,-2.304 v -29.808 h -6.336 v 23.544 c -1.152,2.88 -2.808,5.184 -5.112,6.84 -2.304,1.656 -4.67999,2.448 -7.27199,2.448 -5.32801,0 -7.99201,-3.816 -7.99201,-11.52 v -21.312 h -6.336 v 22.536 c 0,5.256 1.008,9.216 3.024,11.808 2.01601,2.664 4.96801,3.96 8.928,3.96 z" stroke-width="0" stroke-linejoin="miter" stroke-miterlimit="2" fill="#79c384" stroke="#79c384" transform="translate(0 300.88) translate(700.1951037499999 74.372) scale(0.75) translate(-691.83012 37.584)"></path>
        <path id="path746721" style="font-style:normal;font-weight:500;font-size:72px;line-height:1;font-family:'Raleway Medium Alt1';font-variant-ligatures:none;text-align:center;text-anchor:middle" d="m 755.37463,-32.04 v -5.76 c -0.288,0 -0.576,-0.072 -0.86401,-0.072 h -1.224 c -2.448,0.216 -4.68,1.152 -6.76799,2.736 -2.16001,1.584 -3.81601,3.672 -5.11201,6.264 v -8.712 h -5.904 V 0 h 6.336 v -23.184 c 1.00801,-2.736 2.664,-4.824 5.112,-6.408 2.44801,-1.512 5.25601,-2.304 8.42401,-2.448 z" stroke-width="0" stroke-linejoin="miter" stroke-miterlimit="2" fill="#76c885" stroke="#76c885" transform="translate(0 300.88) translate(742.6994787499999 74.156) scale(0.75) translate(-735.50262 37.872)"></path>
        <path id="path746723" style="font-style:normal;font-weight:500;font-size:72px;line-height:1;font-family:'Raleway Medium Alt1';font-variant-ligatures:none;text-align:center;text-anchor:middle" d="m 777.44713,0.72 c 1.87199,0 3.67199,-0.216 5.39999,-0.72 1.728,-0.432 3.24001,-1.08 4.68,-1.944 1.44,-0.864 2.66401,-1.872 3.744,-3.024 1.08001,-1.152 1.944,-2.376 2.592,-3.816 l -5.472,-1.512 c -0.432,1.008 -1.008,1.872 -1.72799,2.592 -0.72001,0.792 -1.58401,1.44 -2.52,1.944 -1.008,0.576 -2.01601,1.008 -3.096,1.296 -1.15201,0.288 -2.23201,0.432 -3.384,0.432 -1.65601,0 -3.24,-0.288 -4.68001,-0.936 -1.43999,-0.576 -2.736,-1.44 -3.88799,-2.592 -1.15201,-1.08 -2.08801,-2.376 -2.80801,-3.96 -0.71999,-1.512 -1.15199,-3.24 -1.296,-5.112 h 31.17601 c 0,-0.216 0.072,-0.576 0.072,-1.008 0,-0.432 0.072,-0.864 0.072,-1.44 0,-2.448 -0.50399,-4.896 -1.368,-7.2 -0.864,-2.304 -2.15999,-4.392 -3.744,-6.12 -1.65599,-1.728 -3.672,-3.168 -5.976,-4.248 -2.304,-1.008 -4.89599,-1.584 -7.70399,-1.584 -2.88,0 -5.472,0.576 -7.77601,1.584 -2.376,1.008 -4.39199,2.448 -6.12,4.176 -1.728,1.8 -3.024,3.888 -3.95999,6.192 -0.93601,2.376 -1.36801,4.896 -1.36801,7.488 0,2.664 0.432,5.184 1.36801,7.56 0.93599,2.376 2.23199,4.464 3.95999,6.192 1.65601,1.8 3.672,3.24 6.048,4.248 2.30401,1.008 4.89601,1.512 7.77601,1.512 z m 12.88799,-22.032 h -25.488 c 0.144,-1.728 0.50401,-3.384 1.22401,-4.896 0.71999,-1.44 1.58399,-2.736 2.736,-3.816 1.15199,-1.08 2.448,-1.944 3.95999,-2.52 1.44001,-0.576 3.024,-0.936 4.75201,-0.936 1.65599,0 3.24,0.36 4.75199,0.936 1.44001,0.576 2.736,1.44 3.88801,2.448 1.15199,1.08 2.08799,2.376 2.80799,3.888 0.72001,1.512 1.22401,3.168 1.368,4.896 z" stroke-width="0" stroke-linejoin="miter" stroke-miterlimit="2" fill="#74cd85" stroke="#74cd85" transform="translate(0 300.88) translate(769.54386125 73.886) scale(0.75) translate(-758.29513 38.232)"></path>
      </g>
      <image xlink:href="" id="icon" x="0" y="0" style="display: none;"></image>
    </g>
  </g>
</svg>