<svg xmlns:dc="http://purl.org/dc/elements/1.1/" xmlns:cc="http://creativecommons.org/ns#" xmlns:rdf="http://www.w3.org/1999/02/22-rdf-syntax-ns#" xmlns:svg="http://www.w3.org/2000/svg" xmlns="http://www.w3.org/2000/svg" xmlns:xlink="http://www.w3.org/1999/xlink" id="svg362720" viewBox="0 0 1024 768" height="768px" width="1024px" version="1.1">
  <metadata id="metadata362726">
    <rdf:rdf>
      <cc:work rdf:about="">
        <dc:format>image/svg+xml</dc:format>
        <dc:type rdf:resource="http://purl.org/dc/dcmitype/StillImage"></dc:type>
      </cc:work>
    </rdf:rdf>
  </metadata>
  <defs id="defs362724"></defs>
  <linearGradient spreadMethod="pad" y2="30%" x2="-10%" y1="120%" x1="30%" id="3d_gradient2-logo-45c5d1d9-54a5-4326-87bc-8679fb0cf929">
    <stop id="stop362701" stop-opacity="1" stop-color="#ffffff" offset="0%"></stop>
    <stop id="stop362703" stop-opacity="1" stop-color="#000000" offset="100%"></stop>
  </linearGradient>
  <linearGradient gradientTransform="rotate(-30)" spreadMethod="pad" y2="30%" x2="-10%" y1="120%" x1="30%" id="3d_gradient3-logo-45c5d1d9-54a5-4326-87bc-8679fb0cf929">
    <stop id="stop362706" stop-opacity="1" stop-color="#ffffff" offset="0%"></stop>
    <stop id="stop362708" stop-opacity="1" stop-color="#cccccc" offset="50%"></stop>
    <stop id="stop362710" stop-opacity="1" stop-color="#000000" offset="100%"></stop>
  </linearGradient>
  <g id="logo-group">
    <image xlink:href="" id="container" x="272" y="144" width="480" height="480" style="display: none;" transform="translate(0 0)"></image>
    <g id="logo-center" transform="translate(0 0)">
      <image xlink:href="" id="icon_container" x="0" y="0" style="display: none;"></image>
      <g id="slogan" style="font-style:oblique;font-weight:100;font-size:32px;line-height:1;font-family:Overpass;font-variant-ligatures:none;text-align:center;text-anchor:middle" transform="translate(0 0)"></g>
      <g id="title" style="font-style:normal;font-weight:normal;font-size:72px;line-height:1;font-family:'Brandmark Sans 52';font-variant-ligatures:normal;text-align:center;text-anchor:middle" transform="translate(0 0)">
        <path id="path362729" style="font-style:normal;font-weight:normal;font-size:72px;line-height:1;font-family:'Brandmark Sans 52';font-variant-ligatures:normal;text-align:center;text-anchor:middle" d="m 260.64969,-32.76 h -29.52 v -2.52 h 29.52 c 0.648,0 1.224,0.576 1.224,1.224 0,0.72 -0.576,1.296 -1.224,1.296 z M 216.00969,0 h 15.12 v -17.64 h 19.872 L 261.15369,0 h 15.84 l -10.728,-18.648 c 6.192,-2.304 10.728,-8.424 10.728,-15.408 0,-8.928 -7.416,-16.344 -16.344,-16.344 h -44.64 z" stroke-width="0" stroke-linejoin="miter" stroke-miterlimit="2" fill="#ff3b94" stroke="#ff3b94" transform="translate(0 306.2044) translate(92.11815125000004 54.536) scale(0.91) translate(-216.00969 50.4)"></path>
        <path id="path362731" style="font-style:normal;font-weight:normal;font-size:72px;line-height:1;font-family:'Brandmark Sans 52';font-variant-ligatures:normal;text-align:center;text-anchor:middle" d="m 279.29094,0 h 60.84 v -15.12 h -45.72 v -2.52 h 45.72 v -15.12 h -45.72 v -2.52 h 45.72 V -50.4 h -60.84 z" stroke-width="0" stroke-linejoin="miter" stroke-miterlimit="2" fill="#ff3b94" stroke="#ff3b94" transform="translate(0 306.2044) translate(182.91908875000001 54.536) scale(0.91) translate(-279.29094 50.4)"></path>
        <path id="path362733" style="font-style:normal;font-weight:normal;font-size:72px;line-height:1;font-family:'Brandmark Sans 52';font-variant-ligatures:normal;text-align:center;text-anchor:middle" d="m 340.41556,-50.4 38.664,51.12 9.72,-12.816 -28.944,-38.304 z m 57.888,0 -17.784,23.544 9.72,12.888 27.504,-36.432 z" stroke-width="0" stroke-linejoin="miter" stroke-miterlimit="2" fill="#ff3b94" stroke="#ff3b94" transform="translate(0 306.2044) translate(271.75749295 54.536) scale(0.91) translate(-340.41556 50.4)"></path>
        <path id="path362735" style="font-style:normal;font-weight:normal;font-size:72px;line-height:1;font-family:'Brandmark Sans 52';font-variant-ligatures:normal;text-align:center;text-anchor:middle" d="m 417.94719,0 h 60.84 v -15.12 h -45.72 v -2.52 h 45.72 v -15.12 h -45.72 v -2.52 h 45.72 V -50.4 h -60.84 z" stroke-width="0" stroke-linejoin="miter" stroke-miterlimit="2" fill="#ff3b94" stroke="#ff3b94" transform="translate(0 306.2044) translate(375.52627624999997 54.536) scale(0.91) translate(-417.94719 50.4)"></path>
        <path id="path362737" style="font-style:normal;font-weight:normal;font-size:72px;line-height:1;font-family:'Brandmark Sans 52';font-variant-ligatures:normal;text-align:center;text-anchor:middle" d="m 525.72781,-32.76 h -29.52 v -2.52 h 29.52 c 0.648,0 1.224,0.576 1.224,1.224 0,0.72 -0.576,1.296 -1.224,1.296 z M 481.08781,0 h 15.12 v -17.64 h 19.872 L 526.23181,0 h 15.84 l -10.728,-18.648 c 6.192,-2.304 10.728,-8.424 10.728,-15.408 0,-8.928 -7.416,-16.344 -16.344,-16.344 h -44.64 z" stroke-width="0" stroke-linejoin="miter" stroke-miterlimit="2" fill="#ff3b94" stroke="#ff3b94" transform="translate(0 306.2044) translate(466.19924044999993 54.536) scale(0.91) translate(-481.08781 50.4)"></path>
        <path id="path362739" style="font-style:normal;font-weight:normal;font-size:72px;line-height:1;font-family:'Brandmark Sans 52';font-variant-ligatures:normal;text-align:center;text-anchor:middle" d="m 589.00906,-32.76 h -29.52 v -2.52 h 29.52 c 0.648,0 1.224,0.576 1.224,1.224 0,0.72 -0.576,1.296 -1.224,1.296 z M 544.36906,0 h 44.64 c 8.928,0 16.344,-7.416 16.344,-16.344 0,-3.24 -0.936,-6.264 -2.592,-8.856 1.656,-2.592 2.592,-5.616 2.592,-8.856 0,-8.928 -7.416,-16.344 -16.344,-16.344 h -44.64 z m 15.12,-15.12 v -2.52 h 29.52 c 0.648,0 1.224,0.576 1.224,1.296 0,0.648 -0.576,1.224 -1.224,1.224 z" stroke-width="0" stroke-linejoin="miter" stroke-miterlimit="2" fill="#ff3b94" stroke="#ff3b94" transform="translate(0 306.2044) translate(557.00017795 54.536) scale(0.91) translate(-544.36906 50.4)"></path>
        <path id="path362741" style="font-style:normal;font-weight:normal;font-size:72px;line-height:1;font-family:'Brandmark Sans 52';font-variant-ligatures:normal;text-align:center;text-anchor:middle" d="M 645.94981,-2.52 V -37.8 h -22.896 v -10.08 h 55.8 v 10.08 h -22.824 v 35.28 z m -2.52,2.52 h 15.12 v -35.28 h 22.824 V -50.4 h -60.84 v 15.12 h 22.896 z" stroke-width="0" stroke-linejoin="miter" stroke-miterlimit="2" fill="#ff3b94" stroke="#ff3b94" transform="translate(0 306.2044) translate(659.52510045 54.536) scale(0.91) translate(-620.53381 50.4)"></path>
        <path id="path362743" style="font-style:normal;font-weight:normal;font-size:72px;line-height:1;font-family:'Brandmark Sans 52';font-variant-ligatures:normal;text-align:center;text-anchor:middle" d="m 667.98406,-2.52 33.12,-43.704 6.048,7.92 -27,35.784 z m -5.04,2.52 h 18.432 l 19.224,-25.416 19.224,25.416 h 19.44 l -28.944,-38.232 -9.216,-12.168 z m 58.104,-2.52 -18.864,-24.984 6.552,-8.64 25.488,33.624 z" stroke-width="0" stroke-linejoin="miter" stroke-miterlimit="2" fill="#ff3b94" stroke="#ff3b94" transform="translate(0 306.2044) translate(731.33342795 54.536) scale(0.91) translate(-662.94406 50.4)"></path>
        <path id="path362745" style="font-style:normal;font-weight:normal;font-size:72px;line-height:1;font-family:'Brandmark Sans 52';font-variant-ligatures:normal;text-align:center;text-anchor:middle" d="m 739.35069,-47.88 h 10.08 v 45.36 h -10.08 z m -2.52,-2.52 V 0 h 15.12 v -50.4 z" stroke-width="0" stroke-linejoin="miter" stroke-miterlimit="2" fill="#ff3b94" stroke="#ff3b94" transform="translate(0 306.2044) translate(831.78526125 54.536) scale(0.91) translate(-736.83069 50.4)"></path>
        <path id="path362747" style="font-style:normal;font-weight:normal;font-size:72px;line-height:1;font-family:'Brandmark Sans 52';font-variant-ligatures:normal;text-align:center;text-anchor:middle" d="m 752.00694,-2.52 v -45.36 h 10.08 v 35.28 h 45.72 v 10.08 z m -2.52,2.52 h 60.84 v -15.12 h -45.72 V -50.4 h -15.12 z" stroke-width="0" stroke-linejoin="miter" stroke-miterlimit="2" fill="#ff3b94" stroke="#ff3b94" transform="translate(0 306.2044) translate(876.51744875 54.536) scale(0.91) translate(-749.48694 50.4)"></path>
      </g>
      <image xlink:href="" id="icon" x="0" y="0" style="display: none;"></image>
    </g>
  </g>
</svg>