<svg xmlns:dc="http://purl.org/dc/elements/1.1/" xmlns:cc="http://creativecommons.org/ns#" xmlns:rdf="http://www.w3.org/1999/02/22-rdf-syntax-ns#" xmlns:svg="http://www.w3.org/2000/svg" xmlns="http://www.w3.org/2000/svg" xmlns:xlink="http://www.w3.org/1999/xlink" id="svg666336" viewBox="0 0 1024 768" height="768px" width="1024px" version="1.1">
  <metadata id="metadata666342">
    <rdf:rdf>
      <cc:work rdf:about="">
        <dc:format>image/svg+xml</dc:format>
        <dc:type rdf:resource="http://purl.org/dc/dcmitype/StillImage"></dc:type>
      </cc:work>
    </rdf:rdf>
  </metadata>
  <defs id="defs666340"></defs>
  <linearGradient spreadMethod="pad" y2="30%" x2="-10%" y1="120%" x1="30%" id="3d_gradient2-logo-58306a27-81d9-47ed-a9ee-0c9c1e86145d">
    <stop id="stop666317" stop-opacity="1" stop-color="#ffffff" offset="0%"></stop>
    <stop id="stop666319" stop-opacity="1" stop-color="#000000" offset="100%"></stop>
  </linearGradient>
  <linearGradient gradientTransform="rotate(-30)" spreadMethod="pad" y2="30%" x2="-10%" y1="120%" x1="30%" id="3d_gradient3-logo-58306a27-81d9-47ed-a9ee-0c9c1e86145d">
    <stop id="stop666322" stop-opacity="1" stop-color="#ffffff" offset="0%"></stop>
    <stop id="stop666324" stop-opacity="1" stop-color="#cccccc" offset="50%"></stop>
    <stop id="stop666326" stop-opacity="1" stop-color="#000000" offset="100%"></stop>
  </linearGradient>
  <g id="logo-group">
    <image xlink:href="" id="container" x="272" y="144" width="480" height="480" style="display: none;" transform="translate(0 0)"></image>
    <g id="logo-center" transform="translate(0 0)">
      <image xlink:href="" id="icon_container" x="0" y="0" style="display: none;"></image>
      <g id="slogan" style="font-style:oblique;font-weight:300;font-size:32px;line-height:1;font-family:'Nunito Sans';font-variant-ligatures:none;text-align:center;text-anchor:middle" transform="translate(0 0)"></g>
      <g id="title" style="font-style:normal;font-weight:normal;font-size:72px;line-height:1;font-family:'Brandmark Sans 1 Color';font-variant-ligatures:normal;text-align:center;text-anchor:middle" transform="translate(0 0)">
        <g id="path666345" aria-label="N" transform="translate(0 303.64552) translate(246.88948125000007 61.89296) scale(0.77) translate(-223.75812 47.952)"> <path class="c1" d="M121.50586,75.99805v48.00391h-11.28125L89.87109,96.20752v27.79443H78.49414V75.99805h10.5127 l21.12207,28.61035V75.99805H121.50586z" transform="translate(145.26398 -123.95005)" stroke-width="0" stroke-linejoin="miter" stroke-miterlimit="2" fill="#61eafa" stroke="#61eafa"></path> </g>
        <g id="path666347" aria-label="E" transform="translate(0 303.64552) translate(293.2458913500001 61.89296) scale(0.77) translate(-273.96125 47.952)"> <path class="c1" d="M83.00684,124.00195h33.98633v-10.12891H83.00684V124.00195z M83.00684,105.28027h33.98633V95.15137 H83.00684V105.28027z M83.00684,75.99805v10.12891h33.98633V75.99805H83.00684z" transform="translate(190.95441 -123.95005)" stroke-width="0" stroke-linejoin="miter" stroke-miterlimit="2" fill="#61eafa" stroke="#61eafa"></path> </g>
        <g id="path666349" aria-label="U" transform="translate(0 303.64552) translate(332.6722937500001 61.83752) scale(0.77) translate(-315.16437 48.024)"> <path class="c1" d="M110.10474,75.54199h11.56934v28.80273c0,11.95313-7.00879,20.11328-21.65039,20.11328 c-14.64063,0-21.69775-8.20801-21.69775-20.01758v-28.8501h11.521v28.51416c0,6.43262,3.74414,10.12891,10.17676,10.12891 c6.38477,0,10.08105-3.69629,10.08105-10.12891V75.59033V75.54199z" transform="translate(236.83843 -123.56599)" stroke-width="0" stroke-linejoin="miter" stroke-miterlimit="2" fill="#61eafa" stroke="#61eafa"></path> </g>
        <g id="path666351" aria-label="R" transform="translate(0 303.64552) translate(379.2452663500001 61.83752) scale(0.77) translate(-365.64875 48.024)"> <path class="c1" d="M119.44141,124.02612h-13.05664l-8.78516-15.88916h-5.66406v15.84131H80.55859V75.97388h22.46582 c9.98438,0,16.12891,6.57666,16.12891,15.50537c0,8.49707-5.32813,13.05713-10.5127,14.25732L119.44141,124.02612z M91.93555,96.80786h9.55273c3.64844,0,6.04883-2.1123,6.04883-5.32861s-2.35254-5.32813-6.04883-5.32813h-9.55273V96.80786z" transform="translate(285.09016 -123.99788)" stroke-width="0" stroke-linejoin="miter" stroke-miterlimit="2" fill="#61eafa" stroke="#61eafa"></path> </g>
        <g id="path666353" aria-label="A" transform="translate(0 303.64552) translate(422.4615163500002 61.89296) scale(0.77) translate(-411.77375 47.952)"> <polygon class="c1" points="106.43262,75.9978 93.61523,75.9978 75.03809,124.0022 87.95117,124.0022 100.04785,89.58276 106.09747,106.8645 106.09747,106.8645 112.09668,124.0022 124.96191,124.0022 " transform="translate(336.73566 -123.9498)" stroke-width="0" stroke-linejoin="miter" stroke-miterlimit="2" fill="#61eafa" stroke="#61eafa"></polygon> <polygon class="c3" points="100.03257,124.0022 92.40832,112.19891 107.59168,112.19891 " transform="translate(336.73566 -123.9498)" stroke-width="0" stroke-linejoin="miter" stroke-miterlimit="2" fill="#d6d31e" stroke="#d6d31e"></polygon> </g>
        <g id="path666355" aria-label="L" transform="translate(0 303.64552) translate(474.12370385000014 61.89296) scale(0.77) translate(-468.8675 47.952)"> <path class="c1" d="M115.26514,113.87305v10.12891H84.73486V75.99805h11.37695v37.875H115.26514z" transform="translate(384.13264 -123.95005)" stroke-width="0" stroke-linejoin="miter" stroke-miterlimit="2" fill="#61eafa" stroke="#61eafa"></path> </g>
        <g id="path666357" aria-label="P" transform="translate(0 303.64552) translate(525.02791875 61.89296) scale(0.77) translate(-524.97687 47.952)"> <path class="c1" d="M119.29736,91.45508c0,8.40088-5.75977,15.50537-16.12891,15.50537H92.07959v17.0415H80.70264V75.99805 h22.46582C113.58545,75.99805,119.29736,83.05469,119.29736,91.45508z M107.729,91.45508 c0-3.21631-2.30469-5.32813-5.90527-5.32813h-9.74414v10.65674h9.74414C105.32861,96.78369,107.68115,94.67139,107.729,91.45508z" transform="translate(444.27423 -123.95005)" stroke-width="0" stroke-linejoin="miter" stroke-miterlimit="2" fill="#61eafa" stroke="#61eafa"></path> </g>
        <g id="path666359" aria-label="U" transform="translate(0 303.64552) translate(568.0276062500001 61.83752) scale(0.77) translate(-570.82062 48.024)"> <path class="c1" d="M110.10474,75.54199h11.56934v28.80273c0,11.95313-7.00879,20.11328-21.65039,20.11328 c-14.64063,0-21.69775-8.20801-21.69775-20.01758v-28.8501h11.521v28.51416c0,6.43262,3.74414,10.12891,10.17676,10.12891 c6.38477,0,10.08105-3.69629,10.08105-10.12891V75.59033V75.54199z" transform="translate(492.49468 -123.56599)" stroke-width="0" stroke-linejoin="miter" stroke-miterlimit="2" fill="#61eafa" stroke="#61eafa"></path> </g>
        <g id="path666361" aria-label="L" transform="translate(0 303.64552) translate(614.60057885 61.89296) scale(0.77) translate(-621.305 47.952)"> <path class="c1" d="M115.26514,113.87305v10.12891H84.73486V75.99805h11.37695v37.875H115.26514z" transform="translate(536.57014 -123.95005)" stroke-width="0" stroke-linejoin="miter" stroke-miterlimit="2" fill="#61eafa" stroke="#61eafa"></path> </g>
        <g id="path666363" aria-label="^S" transform="translate(0 303.64552) translate(651.31995385 61.22768) scale(0.77) translate(-658.9925 48.816)"> <path class="c3" d="M95.96753,124.57715c-6.67285-0.95898-11.76074-3.88672-16.08154-8.25586l6.14502-8.64063l0.95996,1.00781 c1.58398,1.67969,4.56055,4.17578,8.97656,5.42383V124.57715z" transform="translate(579.10651 -124.04549)" stroke-width="0" stroke-linejoin="miter" stroke-miterlimit="2" fill="#d6d31e" stroke="#d6d31e"></path> <path class="c1" d="M104.03198,124.77051v-10.17773c3.12012-0.62305,4.56055-2.30469,4.56055-3.93555 c0-2.54492-4.22461-3.55273-9.12109-4.70508c-7.63184-1.82422-16.89697-4.27197-17.37695-15.21729v-0.43164v-0.43213v-0.43213 c0.23975-7.82471,7.10449-14.20947,18.19336-14.20947c7.63281,0,14.25781,2.3042,19.63379,7.44092l-6.43262,8.44873 l-0.91211-0.86426c-3.4082-3.16797-8.20898-4.94434-13.20117-4.94434c-3.55176,0-5.71191,1.39209-5.71191,3.64844 c0,2.11182,3.9834,3.07227,8.64063,4.17627c7.82422,1.87207,17.3291,4.41602,17.76172,15.45752v0.38477 c0.04785,0.23828,0.04785,0.38281,0.04785,0.52734C120.11401,117.56934,114.88159,123.7627,104.03198,124.77051z" transform="translate(579.10651 -124.04549)" stroke-width="0" stroke-linejoin="miter" stroke-miterlimit="2" fill="#61eafa" stroke="#61eafa"></path> </g>
        <g id="path666365" aria-label="A" transform="translate(0 303.64552) translate(695.51073125 61.89296) scale(0.77) translate(-706.38312 47.952)"> <polygon class="c1" points="106.43262,75.9978 93.61523,75.9978 75.03809,124.0022 87.95117,124.0022 100.04785,89.58276 106.09747,106.8645 106.09747,106.8645 112.09668,124.0022 124.96191,124.0022 " transform="translate(631.34503 -123.9498)" stroke-width="0" stroke-linejoin="miter" stroke-miterlimit="2" fill="#61eafa" stroke="#61eafa"></polygon> <polygon class="c3" points="100.03257,124.0022 92.40832,112.19891 107.59168,112.19891 " transform="translate(631.34503 -123.9498)" stroke-width="0" stroke-linejoin="miter" stroke-miterlimit="2" fill="#d6d31e" stroke="#d6d31e"></polygon> </g>
        <g id="path666367" aria-label="R" transform="translate(0 303.64552) translate(747.17291875 61.83752) scale(0.77) translate(-763.47687 48.024)"> <path class="c1" d="M119.44141,124.02612h-13.05664l-8.78516-15.88916h-5.66406v15.84131H80.55859V75.97388h22.46582 c9.98438,0,16.12891,6.57666,16.12891,15.50537c0,8.49707-5.32813,13.05713-10.5127,14.25732L119.44141,124.02612z M91.93555,96.80786h9.55273c3.64844,0,6.04883-2.1123,6.04883-5.32861s-2.35254-5.32813-6.04883-5.32813h-9.55273V96.80786z" transform="translate(682.91828 -123.99788)" stroke-width="0" stroke-linejoin="miter" stroke-miterlimit="2" fill="#61eafa" stroke="#61eafa"></path> </g>
                  </g>
      <image xlink:href="" id="icon" x="0" y="0" style="display: none;"></image>
    </g>
  </g>
</svg>