<?xml version="1.0" standalone="no"?>
<!DOCTYPE svg PUBLIC "-//W3C//DTD SVG 20010904//EN"
 "http://www.w3.org/TR/2001/REC-SVG-20010904/DTD/svg10.dtd">
<svg version="1.0" xmlns="http://www.w3.org/2000/svg"
 width="1000.000000pt" height="1000.000000pt" viewBox="0 0 1000.000000 1000.000000"
 preserveAspectRatio="xMidYMid meet">

<g transform="translate(0.000000,1000.000000) scale(0.100000,-0.100000)"
fill="#000000" stroke="none">
<path d="M3870 9139 c-19 -10 -46 -19 -60 -19 -15 0 -35 -7 -46 -16 -17 -14
-17 -15 -1 -10 189 60 580 74 831 31 29 -5 29 -5 11 15 -17 19 -30 20 -359 19
-318 0 -343 -1 -376 -20z"/>
<path d="M4670 9110 c25 -4 59 -10 75 -14 28 -7 29 -7 11 8 -13 11 -38 16 -75
15 l-56 -2 45 -7z"/>
<path d="M3660 9070 c-18 -12 -2 -12 25 0 13 6 15 9 5 9 -8 0 -22 -4 -30 -9z"/>
<path d="M3925 9060 c-184 -43 -465 -154 -555 -219 -45 -32 -174 -146 -217
-190 -35 -37 -113 -149 -113 -163 0 -26 43 0 100 61 109 116 424 287 610 332
96 23 239 42 276 37 40 -6 16 -13 -86 -28 -122 -17 -208 -39 -265 -68 -57 -28
-233 -134 -285 -171 -55 -40 -151 -123 -147 -128 9 -8 62 20 117 62 32 25 67
45 78 45 21 0 113 36 217 85 85 40 369 124 381 112 12 -12 -8 -26 -62 -43 -49
-15 -201 -98 -228 -124 -5 -5 6 -5 25 0 19 5 63 16 99 25 82 21 203 67 297
112 72 35 153 105 153 131 0 8 -16 34 -35 57 -26 33 -50 48 -105 69 -84 31
-141 32 -255 6z"/>
<path d="M4953 9023 c21 -8 41 -12 45 -9 10 11 -20 26 -53 25 l-30 0 38 -16z"/>
<path d="M5078 9003 c7 -3 16 -2 19 1 4 3 -2 6 -13 5 -11 0 -14 -3 -6 -6z"/>
<path d="M3380 8951 c-150 -76 -178 -95 -269 -179 -48 -43 -100 -87 -116 -96
-32 -18 -117 -75 -150 -101 -27 -22 52 22 90 50 17 12 49 32 71 43 23 12 73
52 110 90 85 85 101 96 257 177 70 36 121 65 114 65 -7 0 -55 -22 -107 -49z"/>
<path d="M5221 8995 c3 -2 23 -11 45 -20 l39 -16 -24 21 c-19 16 -75 31 -60
15z"/>
<path d="M5410 8923 c52 -19 124 -43 160 -53 36 -10 74 -22 85 -25 11 -3 4 3
-15 14 -19 11 -44 21 -55 21 -11 0 -38 9 -60 20 -22 11 -49 19 -60 20 -11 0
-37 9 -58 20 -20 11 -49 20 -64 19 -19 0 4 -12 67 -36z"/>
<path d="M5254 8871 c3 -4 31 -28 63 -52 32 -24 77 -60 101 -81 30 -25 67 -43
115 -58 40 -11 88 -26 107 -32 38 -12 172 -72 260 -118 30 -15 107 -48 171
-73 133 -52 213 -92 284 -143 28 -20 71 -51 98 -70 118 -85 48 6 -78 100 -38
29 -101 70 -139 91 -66 37 -158 108 -155 121 2 12 -85 63 -171 100 -47 20
-132 58 -190 84 -125 57 -261 104 -359 125 -82 17 -115 19 -107 6z"/>
<path d="M5681 8836 c2 -2 15 -9 29 -15 24 -11 24 -11 6 3 -16 13 -49 24 -35
12z"/>
<path d="M4760 8793 c-41 -7 -48 -22 -21 -44 26 -22 78 -24 131 -6 87 30 -1
69 -110 50z"/>
<path d="M5770 8796 c0 -2 19 -11 43 -19 23 -8 60 -23 82 -32 22 -9 36 -13 30
-8 -24 23 -155 72 -155 59z"/>
<path d="M5940 8727 c3 -3 43 -22 90 -43 47 -20 120 -61 163 -92 43 -30 80
-53 82 -51 3 4 -14 17 -110 84 -55 39 -154 88 -200 99 -16 4 -28 5 -25 3z"/>
<path d="M3580 8642 c-70 -53 -122 -122 -94 -122 11 0 154 131 154 141 0 16
-24 9 -60 -19z"/>
<path d="M5280 8666 c0 -2 35 -24 78 -47 42 -23 90 -51 106 -63 37 -25 253
-104 260 -94 2 2 -32 35 -74 74 -67 62 -87 74 -156 97 -72 23 -214 46 -214 33z"/>
<path d="M4842 8519 c2 -8 31 -27 64 -42 32 -16 67 -33 76 -38 10 -5 34 -9 53
-9 32 0 35 2 25 19 -22 42 -230 108 -218 70z"/>
<path d="M6340 8487 c3 -2 28 -22 55 -42 39 -30 45 -32 25 -10 -14 15 -38 34
-55 42 -16 9 -28 13 -25 10z"/>
<path d="M2514 8453 c-34 -14 -81 -43 -105 -65 l-44 -39 47 30 c59 39 123 67
174 75 22 4 46 11 54 16 33 21 -67 7 -126 -17z"/>
<path d="M2751 8380 c-40 -11 -102 -36 -136 -55 -81 -45 -173 -117 -156 -123
17 -6 152 43 242 89 76 38 139 83 139 100 0 12 -1 11 -89 -11z"/>
<path d="M3095 8350 c-18 -7 -18 -9 10 -20 28 -11 130 -8 142 4 23 23 -103 37
-152 16z"/>
<path d="M5950 8350 c0 -5 28 -18 63 -29 34 -11 89 -29 121 -40 67 -24 80 -21
45 8 -57 47 -229 93 -229 61z"/>
<path d="M2232 8247 c-39 -40 -72 -79 -72 -86 0 -8 16 7 35 31 19 25 56 64 82
87 26 22 43 41 38 41 -6 0 -43 -33 -83 -73z"/>
<path d="M6550 8304 c0 -3 15 -24 34 -47 18 -23 46 -66 60 -95 15 -30 30 -52
32 -49 9 9 -49 111 -88 154 -21 24 -38 40 -38 37z"/>
<path d="M4588 8286 c-52 -19 -83 -40 -111 -78 -48 -65 -41 -88 27 -88 19 0
40 -8 50 -19 9 -10 35 -21 57 -24 22 -3 44 -8 47 -12 12 -12 -23 -25 -68 -25
-41 0 -43 -1 -28 -16 11 -11 51 -21 125 -29 59 -7 106 -13 103 -14 -3 -1 -45
-8 -94 -15 -111 -17 -217 -6 -287 30 -27 13 -49 20 -49 14 0 -21 48 -55 111
-80 137 -54 332 -20 414 72 35 38 40 55 36 131 -3 56 -15 82 -54 111 -67 52
-198 71 -279 42z"/>
<path d="M6435 8143 c119 -110 172 -138 94 -49 -44 50 -119 106 -141 106 -7
-1 14 -26 47 -57z"/>
<path d="M6680 8095 c0 -2 9 -19 20 -37 23 -39 27 -30 5 12 -14 27 -25 38 -25
25z"/>
<path d="M6427 8003 c18 -16 51 -41 74 -58 22 -16 63 -57 89 -91 74 -92 199
-198 216 -181 3 2 -42 57 -99 121 -108 122 -180 181 -263 216 l-49 21 32 -28z"/>
<path d="M6749 7985 c66 -91 81 -114 105 -160 14 -28 45 -69 68 -90 l43 -40
-37 40 c-20 22 -54 72 -75 111 -21 39 -58 93 -82 120 -24 27 -34 36 -22 19z"/>
<path d="M1969 7963 l-24 -28 28 24 c25 23 32 31 24 31 -2 0 -14 -12 -28 -27z"/>
<path d="M2565 7974 c-44 -8 -116 -31 -160 -52 -96 -45 -328 -215 -413 -303
-125 -131 -198 -217 -221 -260 -107 -201 -194 -389 -217 -464 -34 -115 -44
-278 -21 -333 9 -20 21 -56 27 -79 10 -40 30 -59 30 -30 0 6 5 64 10 129 14
181 83 368 197 533 84 124 214 285 257 320 81 68 278 205 295 205 9 0 43 22
76 50 32 27 60 48 62 46 17 -16 -65 -85 -182 -151 -81 -47 -207 -140 -252
-186 -46 -49 -219 -303 -258 -380 -36 -70 -86 -415 -56 -383 5 5 33 54 61 109
124 237 169 302 291 418 112 107 168 148 109 80 -19 -23 -60 -71 -90 -108 -30
-37 -72 -88 -93 -112 -21 -25 -49 -68 -64 -96 -29 -57 -56 -148 -46 -157 3 -3
8 1 10 8 3 7 13 17 24 22 18 10 18 9 7 -17 -7 -15 -15 -33 -19 -38 -5 -6 -13
-40 -19 -75 -7 -36 -14 -78 -17 -94 -5 -26 -4 -28 18 -21 35 11 33 6 74 158
14 52 28 71 138 188 67 71 131 136 144 144 48 32 44 12 -10 -44 -32 -33 -57
-65 -57 -71 0 -12 -31 -58 -72 -108 -16 -18 -28 -41 -28 -51 0 -10 -13 -55
-30 -101 -60 -167 -28 -160 133 30 37 44 38 45 33 15 -12 -78 -39 -126 -105
-186 -36 -34 -84 -74 -106 -89 -41 -28 -188 -80 -228 -80 -12 0 -29 -4 -37
-10 -28 -17 17 -23 138 -17 153 7 240 40 337 126 22 20 76 62 120 95 44 32 93
77 108 100 16 22 52 61 82 86 56 48 79 78 181 235 116 178 133 220 169 436 28
167 32 300 10 379 -8 30 -18 70 -21 87 -7 33 -50 74 -96 92 -46 17 -143 19
-223 5z m-175 -508 c0 -3 -4 -8 -10 -11 -5 -3 -10 -1 -10 4 0 6 5 11 10 11 6
0 10 -2 10 -4z m-75 -75 c8 -14 -30 -32 -50 -25 -12 5 -13 9 -4 20 13 16 45
19 54 5z"/>
<path d="M5875 7951 c-52 -24 -98 -74 -127 -136 -19 -42 -23 -66 -22 -155 0
-169 26 -247 157 -480 76 -134 91 -153 212 -275 79 -80 152 -144 186 -163 30
-17 70 -45 87 -62 50 -47 133 -97 203 -120 35 -12 71 -26 81 -31 36 -19 213
-48 248 -40 23 5 30 10 20 14 -29 12 -179 47 -199 47 -12 0 -52 15 -89 32 -56
27 -93 59 -222 188 -85 85 -162 164 -170 175 -14 19 -14 19 5 5 11 -8 72 -62
135 -119 63 -58 127 -116 143 -130 51 -47 29 2 -36 76 -34 39 -89 105 -122
146 -60 75 -88 97 -126 97 -26 0 -69 29 -69 46 0 20 17 17 33 -7 11 -15 23
-20 48 -17 l34 3 -34 18 c-43 24 -107 87 -87 87 8 0 16 -4 18 -8 2 -5 39 -28
82 -53 58 -33 96 -63 145 -119 36 -41 95 -104 131 -141 36 -36 82 -86 103
-112 34 -42 77 -63 77 -38 0 5 -25 42 -55 84 -30 41 -55 81 -55 87 0 20 -309
327 -378 376 -34 25 -60 49 -57 55 6 9 63 -11 105 -38 40 -26 236 -208 337
-312 50 -53 95 -93 98 -89 4 4 -19 64 -51 133 -48 103 -71 141 -123 196 -66
73 -110 103 -134 93 -8 -3 -34 5 -58 18 -43 23 -44 23 -15 26 19 2 36 -4 54
-20 19 -17 24 -19 19 -6 -16 45 64 11 133 -56 25 -24 56 -63 70 -86 14 -23 42
-68 63 -101 21 -34 60 -105 87 -159 44 -88 62 -110 91 -110 16 0 10 74 -12
135 -27 78 -42 106 -70 130 -12 11 -53 61 -90 110 -38 50 -83 108 -101 129
-65 78 15 17 145 -111 102 -100 132 -137 165 -200 45 -86 144 -200 150 -171 5
25 -14 138 -31 183 -8 22 -59 125 -113 228 -85 165 -110 204 -203 315 -88 105
-131 146 -251 239 -153 119 -249 177 -334 199 -74 20 -182 18 -231 -5z m470
-571 c3 -5 1 -10 -4 -10 -6 0 -11 5 -11 10 0 6 2 10 4 10 3 0 8 -4 11 -10z
m200 -265 c47 -59 51 -73 10 -35 -48 44 -74 73 -75 83 0 15 35 -12 65 -48z"/>
<path d="M3050 7955 c0 -5 6 -34 14 -64 28 -109 36 -167 35 -270 0 -57 3 -106
6 -110 38 -38 40 291 2 381 -14 32 -57 80 -57 63z"/>
<path d="M3279 7853 c-2 -204 3 -409 12 -417 12 -13 19 -4 30 38 5 20 13 53
19 74 5 20 10 92 10 159 0 105 -3 130 -22 173 -32 74 -48 66 -49 -27z"/>
<path d="M1776 7795 c-42 -43 -96 -139 -96 -173 0 -13 -19 -59 -52 -124 -5
-10 -6 -18 -4 -18 9 0 53 92 81 166 34 90 58 127 107 164 25 17 35 30 26 30
-9 0 -37 -20 -62 -45z"/>
<path d="M7201 7759 c-1 -25 20 -45 33 -32 11 11 6 23 -8 23 -8 0 -17 8 -19
18 -3 11 -5 8 -6 -9z"/>
<path d="M3914 7733 c-15 -34 -15 -38 2 -50 35 -26 100 -7 115 34 12 32 -13
53 -62 53 -37 0 -41 -3 -55 -37z"/>
<path d="M7121 7539 c20 -19 61 -53 92 -77 49 -37 64 -57 102 -135 26 -54 44
-83 45 -70 0 43 -58 138 -124 201 -35 34 -69 62 -74 62 -6 0 -25 12 -44 26
-32 25 -32 25 3 -7z"/>
<path d="M6943 7523 c16 -25 120 -184 140 -214 22 -32 154 -135 163 -126 5 5
-142 236 -168 265 -34 36 -151 101 -135 75z"/>
<path d="M3664 7510 c-25 -10 -94 -88 -94 -106 0 -21 38 -41 70 -36 70 10 115
96 72 135 -21 19 -19 19 -48 7z"/>
<path d="M5410 7483 c0 -11 11 -73 24 -136 30 -139 74 -240 124 -285 44 -40
52 -28 17 24 -49 72 -94 179 -121 289 -27 108 -44 150 -44 108z"/>
<path d="M5600 7453 c43 -140 119 -331 151 -378 28 -41 171 -185 184 -185 8 0
-1 12 -66 90 -92 110 -147 211 -229 418 -18 45 -36 82 -41 82 -4 0 -4 -12 1
-27z"/>
<path d="M1605 7459 c-4 -6 -5 -12 -2 -15 2 -3 7 2 10 11 7 17 1 20 -8 4z"/>
<path d="M1506 7282 c-28 -40 -36 -71 -10 -37 18 24 46 75 41 75 -3 0 -16 -17
-31 -38z"/>
<path d="M4751 7263 c6 -16 190 -166 196 -159 10 10 -7 54 -33 85 -33 40 -174
103 -163 74z"/>
<path d="M4239 7240 c-37 -19 -65 -47 -57 -55 7 -7 79 24 101 43 39 34 12 42
-44 12z"/>
<path d="M1460 7200 c-6 -11 -8 -20 -6 -20 3 0 10 9 16 20 6 11 8 20 6 20 -3
0 -10 -9 -16 -20z"/>
<path d="M7370 7200 c6 -11 13 -20 16 -20 2 0 0 9 -6 20 -6 11 -13 20 -16 20
-2 0 0 -9 6 -20z"/>
<path d="M4325 7056 c-145 -47 -211 -96 -260 -193 -30 -62 -65 -191 -65 -244
0 -36 43 -139 58 -139 4 0 8 24 9 54 2 73 55 176 120 237 70 66 110 84 47 22
-53 -53 -90 -116 -78 -134 4 -6 22 6 45 30 38 39 59 51 59 33 0 -5 -11 -42
-25 -82 -14 -40 -25 -77 -25 -82 0 -23 23 0 68 70 74 112 164 202 202 202 22
0 8 -19 -44 -58 -49 -38 -83 -88 -134 -204 -2 -5 6 -8 17 -8 14 0 32 18 57 58
42 67 83 112 100 112 19 0 -8 -98 -40 -145 -27 -39 -27 -40 -7 -43 29 -5 85
32 101 65 7 16 15 23 17 16 7 -18 -29 -63 -89 -114 -76 -65 -140 -99 -205
-109 -30 -5 -58 -12 -61 -15 -27 -27 140 -21 245 9 89 25 119 45 235 158 58
56 66 70 81 128 35 140 27 234 -28 305 -32 43 -44 49 -138 75 -96 25 -173 24
-262 -4z"/>
<path d="M7492 7035 c20 -22 47 -60 61 -85 13 -25 49 -64 78 -88 133 -105 190
-167 276 -299 6 -10 12 -13 12 -6 1 6 -17 34 -39 62 -22 28 -40 55 -40 62 0
18 -123 140 -162 160 -45 23 -105 84 -123 124 -7 16 -32 48 -56 70 l-44 40 37
-40z"/>
<path d="M1329 7028 c-28 -30 -53 -68 -48 -73 3 -2 21 18 41 45 40 53 42 64 7
28z"/>
<path d="M7301 6963 c1 -42 94 -157 178 -221 46 -35 84 -62 86 -60 9 10 -24
56 -114 160 -113 131 -152 162 -150 121z"/>
<path d="M1477 6914 c-10 -19 -22 -56 -27 -81 -10 -43 -33 -101 -67 -168 -66
-130 -88 -177 -104 -225 l-19 -55 4 70 c4 64 22 143 78 330 12 39 28 83 35 98
8 16 12 32 8 35 -14 14 -98 -91 -150 -188 -31 -58 -73 -129 -93 -159 -81 -124
-122 -289 -106 -431 4 -36 6 -121 5 -190 -2 -125 18 -254 64 -414 8 -28 19
-76 25 -106 18 -98 51 -499 60 -725 10 -282 14 -296 172 -558 49 -81 111 -196
136 -255 37 -84 58 -119 100 -161 29 -30 55 -52 58 -49 2 3 -16 40 -41 82 -25
42 -54 102 -66 134 -32 89 -60 195 -53 201 4 3 9 0 12 -8 3 -8 21 -33 42 -55
64 -72 140 -206 218 -389 12 -26 39 -69 60 -95 22 -26 60 -87 86 -137 25 -49
86 -155 135 -235 50 -80 113 -192 141 -249 66 -136 137 -238 230 -331 115
-115 284 -227 375 -248 22 -5 49 -13 60 -17 l20 -7 -20 13 c-11 7 -23 16 -26
21 -3 4 -28 23 -56 41 -58 37 -304 290 -329 339 -9 18 -45 74 -79 123 -57 82
-95 153 -95 177 0 23 33 -15 90 -102 80 -122 120 -169 282 -328 195 -191 489
-414 514 -389 12 11 -18 76 -47 105 -17 16 -48 38 -70 47 -45 21 -47 30 -18
62 18 19 20 25 9 38 -7 8 -11 18 -8 21 8 7 237 -229 311 -321 104 -129 300
-288 418 -337 70 -30 83 -32 232 -36 137 -4 161 -2 184 13 45 30 363 34 363 5
0 -5 -30 -11 -67 -14 -38 -3 -97 -13 -133 -21 -36 -9 -88 -18 -116 -21 -97
-12 -98 -34 -4 -54 102 -21 165 -31 250 -36 94 -7 257 -35 515 -89 114 -24
209 -38 290 -42 l120 -5 115 40 c172 59 326 130 413 189 164 112 270 150 437
158 63 3 178 15 255 26 209 30 236 44 417 230 81 83 168 164 194 180 26 17 82
61 125 99 43 38 97 81 120 95 157 100 375 281 430 358 19 26 56 77 83 113 84
111 189 319 234 464 17 52 57 181 90 285 76 239 94 341 90 508 -3 140 -16 165
-34 65 -17 -93 -91 -408 -114 -478 -11 -33 -36 -88 -56 -123 -20 -34 -46 -78
-57 -97 -10 -19 -31 -49 -46 -65 -14 -17 -43 -56 -65 -87 -33 -49 -66 -80 -66
-62 0 3 27 43 60 88 57 80 64 100 54 155 -5 23 -6 23 -85 16 -78 -7 -82 -6
-108 19 l-27 26 -17 -36 c-10 -19 -15 -39 -12 -43 2 -5 5 -33 6 -62 2 -44 8
-63 36 -102 19 -26 44 -52 54 -58 27 -14 16 -27 -29 -35 -40 -7 -72 -29 -72
-49 0 -19 -58 -77 -69 -71 -5 4 -13 26 -16 50 -4 23 -11 49 -15 56 -13 21
-105 18 -129 -4 -31 -28 -51 -16 -70 41 -27 78 -66 131 -116 155 -25 12 -47
19 -50 16 -3 -3 7 -29 22 -59 21 -42 27 -68 26 -116 0 -35 -5 -69 -11 -75 -5
-7 -13 -42 -17 -78 -12 -113 -49 -245 -95 -345 -32 -67 -99 -151 -100 -123 0
9 5 20 10 23 18 11 50 84 77 173 20 67 27 117 31 219 l5 132 -36 74 c-37 78
-79 120 -130 129 -36 7 -43 -5 -13 -22 24 -12 46 -49 46 -75 0 -20 -1 -20 -61
18 -52 32 -54 32 -173 32 -162 -1 -177 -7 -400 -154 -83 -55 -121 -94 -180
-186 -25 -38 -46 -65 -46 -60 0 12 44 99 84 168 32 54 17 65 -26 20 -45 -48
-167 -243 -180 -286 -6 -23 -12 -80 -12 -127 0 -67 5 -94 22 -126 20 -39 82
-98 143 -138 31 -20 72 -30 63 -15 -3 6 -8 9 -10 6 -6 -6 -103 85 -124 118
-44 67 -17 72 52 10 104 -93 240 -88 434 16 100 54 133 57 74 8 -58 -49 -151
-100 -222 -123 -38 -11 -68 -26 -68 -33 0 -23 63 -14 180 26 63 22 116 38 118
37 1 -2 -16 -15 -38 -30 -39 -26 -55 -54 -24 -42 9 3 19 6 23 6 5 0 33 24 63
53 30 28 96 89 146 135 l92 83 0 -33 c-1 -121 -223 -309 -450 -379 -61 -19
-98 -24 -200 -24 -121 0 -127 1 -185 32 -83 43 -135 91 -170 154 -25 47 -29
66 -33 159 -2 58 1 132 7 165 16 89 100 246 173 323 33 35 58 65 56 68 -3 2
-31 -2 -64 -11 -32 -8 -66 -15 -76 -15 -9 0 -43 -12 -74 -26 -39 -18 -65 -24
-83 -19 -70 17 -89 15 -208 -24 -100 -34 -140 -42 -230 -47 -109 -6 -184 3
-190 22 -2 6 33 36 77 68 117 84 103 106 -40 61 -25 -8 -79 -21 -120 -29 -41
-8 -86 -17 -100 -21 -22 -6 -23 -5 -8 7 10 7 52 33 94 58 41 25 128 86 192
137 91 71 124 104 148 146 43 75 74 160 74 205 0 20 7 62 15 92 17 65 18 80 5
80 -5 0 -10 -6 -10 -13 0 -28 -71 -156 -116 -209 -27 -31 -76 -89 -109 -128
-55 -66 -69 -76 -170 -125 -194 -93 -217 -99 -400 -99 l-160 0 -124 42 c-67
23 -127 42 -133 42 -17 0 -102 42 -138 69 -19 14 -60 46 -90 71 -30 25 -81 65
-113 89 -33 24 -73 66 -92 96 -19 29 -58 80 -86 112 -77 88 -96 128 -148 307
-51 176 -86 248 -158 325 -43 45 -64 51 -44 12 7 -11 16 -57 22 -102 5 -45 16
-94 24 -108 7 -15 16 -45 20 -66 3 -22 13 -58 20 -80 34 -94 63 -255 47 -255
-16 0 -57 60 -96 143 -41 87 -119 303 -130 359 -12 67 -56 112 -163 167 -54
28 -129 75 -166 106 -36 30 -68 55 -71 55 -2 0 -7 -24 -11 -52 -10 -72 -45
-129 -136 -220 -69 -70 -83 -79 -150 -99 -60 -19 -98 -23 -199 -24 -121 0
-127 1 -193 32 -122 58 -205 161 -293 364 -50 116 -67 191 -85 373 -14 144
-11 160 29 151 26 -5 29 -3 38 32 5 23 15 38 24 38 12 0 16 -28 22 -162 7
-179 25 -268 79 -399 26 -64 44 -91 96 -140 64 -62 103 -84 103 -59 0 7 -4 15
-9 17 -22 8 -141 291 -128 304 7 7 37 -43 79 -130 65 -134 89 -160 192 -209
50 -25 101 -48 114 -52 13 -4 21 -12 19 -18 -3 -8 -32 -12 -86 -11 -91 1 -100
-9 -35 -41 63 -31 142 -32 206 -2 117 55 237 202 270 332 22 87 23 195 2 266
-46 156 -154 296 -289 376 -92 54 -151 73 -231 73 -79 0 -105 -12 -168 -79
-65 -71 -96 -142 -103 -239 -2 -42 -7 -83 -9 -91 -13 -41 -20 27 -24 262 -5
246 -7 265 -29 314 -32 71 -62 97 -110 95 -55 -4 -87 12 -106 52 -20 42 -16
51 39 77 24 11 56 33 71 49 32 34 42 36 64 16 14 -12 25 -11 87 9 103 34 167
69 197 108 15 19 56 97 92 173 37 77 80 166 96 200 16 33 49 82 75 108 78 82
28 74 -66 -11 -30 -26 -74 -61 -98 -77 -34 -24 -51 -46 -82 -110 -21 -45 -41
-98 -44 -118 -9 -50 -64 -95 -125 -104 -27 -4 -57 -16 -71 -29 -37 -34 -174
-135 -182 -135 -5 0 -8 6 -8 14 0 8 26 31 58 52 106 70 151 114 182 180 17 34
30 65 30 68 0 3 -32 -15 -70 -40 -125 -81 -299 -144 -396 -144 -45 0 -74 7
-113 26 -65 33 -150 114 -182 174 l-24 45 -3 -65 c-2 -36 2 -101 8 -145 6 -44
15 -110 20 -148 5 -42 19 -88 36 -122 24 -46 35 -57 66 -66 21 -5 42 -19 48
-29 15 -28 -6 -26 -53 5 -20 14 -42 23 -47 20 -13 -8 -70 73 -70 101 0 13 -7
41 -15 61 -57 149 -88 593 -52 743 43 179 46 213 14 144z m419 -1230 c22 -6
43 -40 64 -107 14 -44 13 -45 -26 -53 -36 -7 -79 25 -109 80 l-19 35 24 26
c25 26 32 28 66 19z m-589 -216 c-2 -13 -4 -5 -4 17 -1 22 1 32 4 23 2 -10 2
-28 0 -40z m37 -383 c1 -137 -1 -318 -4 -402 -4 -129 -7 -148 -17 -128 -43 81
-55 259 -29 415 25 143 33 233 25 270 -5 19 -8 64 -8 100 l1 65 15 -35 c13
-28 16 -82 17 -285z m314 250 c11 -14 24 -25 30 -25 14 0 18 -17 21 -82 2 -58
2 -58 -26 -58 -16 0 -38 7 -50 15 -20 14 -22 24 -21 95 1 87 11 99 46 55z
m829 -412 c50 -88 91 -138 152 -188 34 -27 61 -54 61 -59 0 -15 -64 4 -103 31
-53 37 -84 79 -118 164 -43 106 -39 132 8 52z m-670 -58 c12 -32 30 -66 39
-76 16 -18 11 -44 -7 -33 -14 8 -79 140 -79 160 0 33 25 6 47 -51z m1461 -306
c15 -18 51 -59 81 -93 69 -78 111 -144 111 -173 0 -13 -3 -23 -8 -23 -9 0
-151 144 -210 214 -23 27 -42 59 -42 71 0 46 31 47 68 4z m-84 -141 c13 -13
71 -75 129 -139 101 -112 130 -160 108 -182 -13 -13 -214 181 -261 252 -50 74
-33 120 24 69z m-1633 -50 c13 -18 57 -69 99 -113 106 -112 191 -264 226 -406
14 -57 24 -120 21 -139 -7 -63 67 -184 190 -309 48 -49 63 -71 48 -71 -15 0
-173 85 -193 104 -13 11 -35 43 -49 70 -22 43 -25 64 -28 170 -3 136 -9 154
-112 360 -39 78 -72 128 -113 170 -49 51 -130 170 -130 190 0 16 21 2 41 -26z
m1484 -173 c41 -50 41 -75 -2 -75 -31 0 -83 45 -83 71 0 62 36 64 85 4z m-485
-30 c71 -28 110 -51 110 -65 0 -15 -48 -12 -78 4 -15 8 -39 17 -55 21 -32 6
-71 41 -62 55 9 14 13 13 85 -15z m1020 -316 c32 -24 90 -107 90 -128 0 -7
-24 9 -54 35 -29 27 -71 58 -92 69 -60 29 -67 37 -52 47 20 13 74 2 108 -23z
m-263 -63 c109 -38 204 -130 261 -253 23 -51 27 -73 30 -189 4 -128 -7 -204
-29 -204 -5 0 -9 3 -10 8 -9 108 -40 209 -94 301 -39 66 -119 168 -169 215
-31 29 -120 74 -189 96 -31 10 -36 14 -26 26 15 19 172 19 226 0z m481 -7 c7
-12 11 -23 8 -26 -8 -9 -36 17 -36 33 0 20 13 17 28 -7z m-1319 -74 c35 -40
41 -75 13 -75 -18 0 -72 73 -72 97 0 24 28 13 59 -22z m1531 -140 c13 -14 21
-28 17 -31 -6 -7 -67 36 -67 48 0 16 27 7 50 -17z m-1095 -82 c6 -36 21 -80
51 -151 14 -33 90 -122 104 -122 5 0 1 18 -7 39 -16 40 -13 71 7 71 6 0 14 -8
18 -17 23 -57 89 -157 116 -177 31 -24 112 -46 165 -46 16 0 40 9 54 20 14 11
30 20 37 20 23 0 3 -26 -41 -50 -78 -44 -237 -31 -332 28 -84 53 -174 225
-192 370 -8 61 10 74 20 15z m1446 -110 c13 -15 12 -15 -8 -4 -24 12 -29 21
-14 21 5 0 15 -7 22 -17z m146 -48 c41 -19 80 -35 87 -35 7 0 16 -3 20 -7 4
-4 25 -9 47 -10 43 -3 178 -40 193 -54 5 -4 -11 -13 -35 -19 -33 -9 -65 -9
-127 -1 -70 9 -99 19 -176 60 -50 28 -102 61 -116 75 l-23 26 27 0 c16 0 62
-16 103 -35z m3406 -2 c-3 -10 -21 -38 -39 -62 -19 -24 -34 -48 -34 -53 0 -17
-71 -161 -100 -204 -32 -45 -118 -116 -157 -128 -40 -13 -14 30 73 124 45 48
93 108 105 132 34 67 138 208 154 208 2 0 2 -8 -2 -17z m-198 -53 c-3 -5 -11
-10 -16 -10 -6 0 -7 5 -4 10 3 6 11 10 16 10 6 0 7 -4 4 -10z m-120 -76 c34
-22 31 -36 -12 -73 -41 -35 -46 -36 -61 -18 -8 9 -7 20 3 37 8 14 20 35 26 48
15 26 13 26 44 6z m-4364 -11 c16 -10 29 -21 29 -25 0 -4 6 -8 14 -8 7 0 19
-7 26 -15 21 -25 -5 -18 -54 16 -66 44 -77 68 -15 32z m2704 -43 c13 -21 -24
-57 -80 -78 -114 -44 -145 -13 -52 51 53 37 118 50 132 27z m-2953 -107 c53
-48 103 -156 59 -129 -5 4 -37 42 -71 86 -66 87 -60 107 12 43z m-465 -2 c17
-11 46 -36 65 -57 85 -96 107 -111 245 -171 24 -10 43 -21 43 -26 0 -4 -15 -1
-32 7 -64 27 -83 34 -126 47 -62 18 -144 84 -197 157 -48 66 -48 73 2 43z
m2780 -25 c92 -17 125 -42 162 -119 30 -64 49 -176 36 -217 -6 -20 -8 -21 -25
-5 -11 10 -26 39 -35 66 -34 101 -133 146 -342 156 -73 3 -133 9 -133 13 0 17
132 91 185 104 77 18 68 18 152 2z m-1174 -111 c31 -29 51 -75 31 -75 -15 0
-124 74 -124 85 0 37 47 33 93 -10z m483 1 c11 -8 38 -16 59 -18 47 -4 61 -28
15 -28 -34 0 -110 35 -110 50 0 14 12 12 36 -4z m2064 -81 c0 -2 -18 -14 -40
-25 -29 -15 -59 -20 -114 -20 -95 0 -107 16 -19 25 38 4 82 11 98 15 35 9 75
12 75 5z m-3488 -172 c71 -63 80 -86 19 -52 -61 34 -95 64 -87 77 11 19 23 14
68 -25z m2566 25 c18 -18 15 -27 -20 -48 -67 -40 -113 -16 -59 32 34 30 60 35
79 16z m-2154 -68 c19 0 165 -93 195 -124 19 -20 32 -36 29 -36 -35 0 -233
124 -303 190 -42 39 -28 42 24 5 26 -19 51 -35 55 -35z m-604 50 c0 -5 -7 -10
-15 -10 -8 0 -15 5 -15 10 0 6 7 10 15 10 8 0 15 -4 15 -10z m-35 -30 c23 -26
4 -26 -26 0 -18 15 -20 19 -8 20 9 0 24 -9 34 -20z m2525 -6 c0 -8 -4 -12 -10
-9 -5 3 -10 10 -10 16 0 5 5 9 10 9 6 0 10 -7 10 -16z m-593 -49 c20 -19 52
-40 72 -45 20 -6 45 -17 55 -25 11 -8 33 -15 49 -15 15 0 37 -5 48 -11 16 -8
29 -7 54 5 45 22 65 20 99 -7 35 -28 31 -48 -16 -78 -30 -18 -43 -20 -127 -14
-51 4 -104 10 -117 15 -56 22 -164 148 -164 192 0 25 6 23 47 -17z m-367 -134
c13 -26 13 -31 -4 -31 -18 0 -39 27 -31 40 10 16 23 12 35 -9z m2500 0 c0 -5
-16 -22 -36 -38 -55 -44 -115 -104 -159 -161 -38 -49 -135 -116 -135 -92 0 5
6 10 13 10 17 0 59 44 51 53 -3 3 -29 3 -56 0 -80 -10 -58 13 92 95 73 40 151
88 174 107 42 35 56 42 56 26z m-595 -91 c-3 -5 -17 -10 -31 -10 -13 0 -24 5
-24 10 0 6 14 10 31 10 17 0 28 -4 24 -10z m-2100 -40 c3 -5 -3 -10 -14 -10
-12 0 -21 5 -21 10 0 6 6 10 14 10 8 0 18 -4 21 -10z m1645 -105 c-26 -31
-240 -81 -240 -56 0 6 12 13 28 17 15 3 54 14 87 24 69 22 93 27 119 29 15 1
16 -2 6 -14z m-2388 -99 c40 -8 91 -21 113 -29 22 -9 61 -18 87 -22 26 -3 50
-10 52 -14 3 -4 38 -24 78 -45 86 -44 177 -108 162 -113 -6 -2 -56 12 -110 31
-55 19 -112 39 -129 44 -16 5 -52 17 -80 26 -27 10 -63 19 -80 22 -62 11 -195
82 -195 105 0 12 15 11 102 -5z m2675 -22 c-17 -18 -183 -104 -199 -104 -30 0
-21 16 20 34 20 9 61 30 91 47 47 25 106 41 88 23z m-389 -83 c2 -1 1 -5 -2
-9 -3 -5 -49 -19 -102 -32 -102 -25 -105 -25 -264 11 -65 15 -64 15 -55 29 5
8 65 10 214 6 113 -2 207 -5 209 -5z m-809 -107 c59 -7 219 -45 286 -69 22 -7
76 -16 119 -19 44 -3 82 -8 84 -11 15 -15 -22 -20 -137 -20 -96 0 -136 4 -166
17 -72 30 -130 47 -323 98 -19 4 -36 11 -39 14 -6 6 88 1 176 -10z"/>
<path d="M1637 5293 c-3 -5 1 -13 8 -20 10 -10 14 -9 19 3 3 9 6 18 6 20 0 7
-29 4 -33 -3z"/>
<path d="M1238 6879 c-18 -35 -36 -72 -40 -82 -4 -10 -23 -38 -43 -64 -19 -25
-35 -50 -35 -56 0 -16 74 93 120 178 23 42 39 79 37 82 -3 3 -21 -24 -39 -58z"/>
<path d="M3843 6890 c-29 -67 -56 -185 -55 -246 0 -30 9 -75 19 -102 l18 -47
6 30 c4 17 7 89 8 161 1 90 6 145 17 177 21 63 11 83 -13 27z"/>
<path d="M3116 6858 c-9 -13 -19 -38 -22 -56 -6 -28 -3 -32 22 -38 22 -6 32
-2 51 21 34 39 29 89 -9 93 -19 2 -31 -3 -42 -20z"/>
<path d="M5010 6758 c0 -18 -3 -43 -6 -55 -5 -17 -2 -23 9 -23 20 0 25 16 19
68 -5 49 -22 57 -22 10z"/>
<path d="M1095 6629 c-9 -17 -15 -33 -13 -35 3 -2 12 12 21 31 21 43 13 47 -8
4z"/>
<path d="M5676 6631 c-15 -24 18 -50 62 -51 15 0 16 32 0 48 -14 14 -54 16
-62 3z"/>
<path d="M4981 6591 c-1 -8 -12 -31 -24 -50 -72 -109 -87 -136 -77 -139 17 -6
64 43 95 99 22 41 25 54 17 77 -6 15 -11 20 -11 13z"/>
<path d="M1056 6553 c-7 -16 -24 -62 -36 -103 -13 -41 -31 -102 -41 -134 -26
-82 -25 -163 2 -196 17 -20 19 -21 14 -5 -4 11 -10 46 -13 78 -5 61 13 142 67
305 29 86 31 101 7 55z"/>
<path d="M7920 6534 c1 -16 29 -60 29 -44 0 8 -6 24 -14 34 -8 11 -15 16 -15
10z"/>
<path d="M6352 6469 c36 -58 152 -118 320 -163 57 -16 218 -22 277 -10 49 10
38 27 -13 20 -25 -4 -93 -2 -153 4 -160 17 -274 56 -372 129 -61 45 -77 51
-59 20z"/>
<path d="M7507 6419 c29 -49 120 -145 169 -178 39 -27 44 -28 44 -11 0 50 -53
113 -156 186 -62 44 -82 45 -57 3z"/>
<path d="M7976 6330 c11 -111 24 -157 19 -65 -2 45 -9 92 -14 105 -8 19 -9 9
-5 -40z"/>
<path d="M3564 6346 c-11 -29 1 -51 29 -54 21 -3 29 2 36 20 5 14 5 28 -1 36
-14 17 -57 15 -64 -2z"/>
<path d="M4961 6320 c-81 -61 -114 -90 -108 -96 2 -3 35 5 71 16 59 19 69 27
86 61 37 71 26 75 -49 19z"/>
<path d="M7300 6348 c0 -14 79 -98 93 -98 17 0 4 29 -25 56 -56 51 -68 59 -68
42z"/>
<path d="M2720 6337 c-25 -9 -42 -24 -59 -56 l-24 -44 29 7 c32 8 104 72 104
93 0 15 -4 15 -50 0z"/>
<path d="M4561 6249 c-67 -28 -118 -42 -178 -49 -106 -12 -237 -3 -283 20 -19
10 -46 21 -58 25 -22 6 -23 5 -12 -14 17 -33 110 -89 175 -107 77 -20 209 -14
283 14 56 22 182 117 182 139 0 18 -3 17 -109 -28z"/>
<path d="M7837 6253 c-22 -22 84 -293 115 -293 6 0 7 8 3 18 -3 9 -16 46 -27
82 -11 36 -26 76 -33 90 -7 14 -18 42 -24 62 -13 39 -24 52 -34 41z"/>
<path d="M5775 6205 c-27 -8 -49 -24 -68 -51 -28 -37 -29 -43 -25 -131 4 -87
6 -95 42 -148 48 -69 164 -170 230 -201 28 -13 53 -21 56 -18 5 6 -100 104
-112 104 -5 0 -8 7 -8 15 0 17 65 22 75 5 9 -15 24 -12 21 5 -3 22 -37 55 -58
55 -29 0 -21 17 12 24 23 4 41 -1 71 -20 23 -14 43 -23 46 -20 3 3 -8 21 -26
41 -50 57 -37 75 22 31 18 -13 49 -31 70 -40 22 -9 41 -25 44 -36 8 -29 30
-24 38 8 7 35 -8 136 -28 183 -22 54 -64 96 -137 139 -91 53 -198 75 -265 55z"/>
<path d="M8000 6175 c0 -13 48 -210 65 -265 l13 -45 1 47 c1 27 -8 74 -18 105
-11 32 -23 74 -27 93 -6 33 -34 85 -34 65z"/>
<path d="M7570 6116 c0 -15 157 -186 170 -186 5 0 1 19 -8 42 -27 67 -162 186
-162 144z"/>
<path d="M6327 6075 c4 -11 13 -31 20 -45 7 -14 13 -34 13 -46 0 -11 7 -43 15
-70 8 -27 16 -87 19 -134 3 -51 9 -85 15 -84 6 1 16 2 22 3 18 2 5 156 -21
242 -14 49 -34 89 -56 115 -20 22 -31 30 -27 19z"/>
<path d="M6470 6052 c0 -5 9 -34 19 -64 10 -31 24 -82 31 -114 7 -33 21 -85
31 -116 10 -32 19 -76 19 -98 0 -58 25 -54 34 6 14 103 7 163 -25 237 -17 39
-41 86 -52 103 -22 33 -57 61 -57 46z"/>
<path d="M2436 6034 c-18 -17 -21 -61 -6 -84 7 -12 16 -7 50 27 44 46 48 58
24 67 -27 10 -52 7 -68 -10z"/>
<path d="M5467 6023 c-10 -16 12 -122 33 -164 22 -43 171 -199 191 -199 14 0
-1 26 -93 164 -44 65 -88 139 -99 162 -18 44 -24 50 -32 37z"/>
<path d="M3330 5990 c-26 -26 -25 -32 6 -69 21 -25 33 -31 66 -31 l41 0 -5 45
c-3 25 -11 52 -18 60 -18 21 -66 19 -90 -5z"/>
<path d="M2665 5969 c-13 -39 81 -127 107 -101 14 14 -18 78 -52 102 -36 25
-47 25 -55 -1z"/>
<path d="M970 5913 c-6 -21 -10 -54 -8 -73 3 -30 5 -25 16 34 14 76 10 99 -8
39z"/>
<path d="M2196 5901 c-7 -11 51 -111 64 -111 21 0 27 67 8 93 -16 20 -64 32
-72 18z"/>
<path d="M6991 5878 c-36 -38 -50 -199 -20 -222 9 -6 24 -26 33 -44 23 -45 32
-33 16 23 -12 44 -10 89 8 196 13 71 0 87 -37 47z"/>
<path d="M7219 5891 c-9 -6 -27 -34 -40 -63 -21 -47 -24 -67 -23 -188 0 -147
6 -171 76 -305 59 -113 155 -261 164 -252 2 1 -13 34 -32 72 -18 39 -34 80
-34 92 0 12 16 37 35 56 19 19 35 40 35 48 0 22 13 36 40 44 20 6 23 5 13 -6
-7 -7 -13 -23 -13 -34 0 -12 -9 -30 -20 -40 -22 -19 -26 -51 -10 -75 9 -13 11
-13 20 0 5 8 10 21 10 28 0 6 9 29 20 49 11 21 20 45 20 54 0 9 7 19 15 23 12
4 15 -3 15 -35 0 -24 5 -42 14 -45 23 -9 73 -97 86 -153 7 -29 10 -78 7 -107
-3 -30 -1 -54 3 -54 15 0 50 85 57 136 11 80 -17 269 -52 361 -71 181 -164
318 -250 369 -47 27 -131 40 -156 25z m339 -507 c-10 -10 -28 6 -28 24 0 15 1
15 17 -1 9 -9 14 -19 11 -23z m-197 2 c-7 -8 -10 -20 -7 -25 7 -10 -33 -81
-45 -81 -4 0 -9 15 -12 33 -4 27 1 37 31 65 33 32 57 38 33 8z m213 -32 c9
-24 7 -64 -3 -64 -11 0 -21 25 -21 56 0 27 15 32 24 8z"/>
<path d="M2490 5876 c0 -22 86 -112 124 -130 46 -22 61 -20 74 8 9 21 6 28
-21 54 -32 31 -134 82 -162 82 -8 0 -15 -6 -15 -14z"/>
<path d="M8121 5802 c17 -29 34 -52 36 -52 7 0 -41 81 -55 92 -7 7 1 -12 19
-40z"/>
<path d="M3254 5829 c-4 -7 1 -18 11 -26 29 -20 47 -16 43 10 -3 25 -41 36
-54 16z"/>
<path d="M2392 5771 c4 -64 20 -93 38 -75 14 14 -12 126 -29 132 -11 4 -13 -9
-9 -57z"/>
<path d="M990 5739 c6 -18 10 -59 10 -89 0 -38 6 -64 20 -85 17 -26 20 -47 20
-151 0 -93 3 -125 15 -140 15 -18 15 -15 9 35 -3 30 -10 100 -14 155 -10 116
-42 282 -58 298 -9 9 -9 3 -2 -23z"/>
<path d="M8189 5700 c12 -19 42 -75 68 -125 40 -80 98 -171 126 -200 14 -14
-1 12 -27 49 -12 17 -48 80 -81 141 -33 62 -71 125 -83 141 l-24 29 21 -35z"/>
<path d="M3031 5694 c21 -24 64 -111 73 -146 9 -40 53 -87 103 -110 54 -25
100 -79 117 -138 16 -54 32 -51 27 5 -6 73 -69 182 -156 273 -87 91 -117 115
-155 127 -24 7 -24 7 -9 -11z"/>
<path d="M2807 5643 c-13 -13 -6 -20 44 -48 42 -22 53 -25 60 -14 16 26 9 40
-26 55 -37 15 -68 18 -78 7z"/>
<path d="M3604 5631 c-30 -18 -54 -64 -54 -102 0 -20 7 -22 52 -19 38 2 46
-19 9 -26 -17 -4 -31 -10 -31 -14 0 -17 30 -30 54 -24 33 8 49 -6 66 -55 12
-38 14 -39 49 -34 84 13 191 94 191 144 0 43 -42 98 -94 124 -65 33 -193 36
-242 6z"/>
<path d="M7834 5605 c-7 -16 50 -145 69 -157 23 -15 29 -7 22 30 -5 31 -70
142 -82 142 -2 0 -6 -7 -9 -15z"/>
<path d="M4807 5568 c-42 -15 -28 -31 39 -43 32 -6 69 -17 82 -24 35 -19 47
-3 20 26 -23 26 -77 54 -100 52 -7 0 -26 -5 -41 -11z"/>
<path d="M6290 5551 c-8 -5 -58 -14 -110 -21 -119 -15 -280 -50 -280 -60 0
-15 127 -51 181 -51 70 -1 141 30 197 84 51 50 57 74 12 48z"/>
<path d="M2993 5494 c8 -46 32 -81 78 -112 19 -13 38 -33 42 -45 30 -77 57
-104 80 -81 10 10 -18 56 -53 87 -17 15 -47 62 -67 103 -20 40 -39 74 -44 74
-4 0 -15 3 -25 7 -15 6 -16 2 -11 -33z"/>
<path d="M4282 5503 c9 -10 33 -26 52 -37 35 -18 35 -18 65 5 16 13 29 29 27
34 -1 6 -38 11 -81 13 -75 3 -78 2 -63 -15z"/>
<path d="M5443 5384 c-7 -19 49 -78 85 -89 18 -5 22 -2 22 14 0 25 -27 54 -70
76 -28 14 -31 14 -37 -1z"/>
<path d="M7051 5317 c-2 -21 73 -286 91 -322 29 -56 132 -160 194 -195 31 -18
65 -30 85 -29 l34 0 -36 17 c-20 9 -68 54 -108 100 -40 45 -76 82 -81 82 -17
0 -122 195 -156 290 -12 36 -23 61 -23 57z"/>
<path d="M7487 5296 c-7 -18 3 -56 14 -56 5 0 9 16 9 35 0 35 -13 47 -23 21z"/>
<path d="M5309 5273 c5 -10 37 -45 71 -78 36 -35 74 -85 91 -120 30 -60 107
-170 115 -163 6 6 -39 109 -73 168 -40 68 -83 117 -148 170 -53 43 -71 50 -56
23z"/>
<path d="M4608 5274 c-19 -19 -5 -33 40 -39 26 -4 67 -14 92 -22 25 -8 51 -17
58 -19 7 -2 10 -8 7 -14 -4 -6 -20 -4 -43 6 -32 13 -78 24 -222 51 -45 8 -172
-26 -266 -72 -75 -36 -102 -56 -148 -107 -89 -100 -162 -270 -181 -424 -12
-97 17 -242 82 -404 51 -128 64 -151 112 -198 47 -46 150 -117 158 -108 2 2
-11 21 -29 43 -58 64 -85 105 -128 191 -34 67 -40 85 -30 97 7 8 17 15 23 15
6 0 22 12 35 28 l23 27 -6 -25 c-11 -42 -8 -57 30 -125 42 -74 64 -100 76 -88
4 4 11 37 14 73 3 35 8 67 10 70 2 4 -5 24 -16 45 -17 31 -19 43 -10 62 6 13
14 22 19 20 12 -8 13 75 1 89 -6 7 -9 19 -7 25 6 19 48 -54 50 -87 1 -21 26
-56 87 -123 129 -142 145 -156 216 -196 l66 -37 54 13 54 14 -100 89 c-59 52
-96 92 -89 96 13 8 2 40 -14 40 -7 0 -17 -5 -24 -12 -8 -8 -15 -8 -26 1 -18
15 -118 213 -111 220 9 9 43 -32 77 -94 25 -43 45 -66 76 -83 l41 -23 30 22
29 21 92 -60 c69 -45 106 -63 153 -72 34 -6 90 -20 124 -31 34 -10 72 -19 83
-19 25 0 37 -25 21 -44 -8 -10 -20 -12 -39 -7 -32 10 -61 0 -84 -27 -9 -12
-40 -25 -73 -32 -56 -12 -56 -12 -38 -32 10 -11 30 -26 44 -34 32 -16 216 -23
272 -10 35 8 39 7 35 -10 -2 -11 -25 -30 -57 -46 -68 -34 -100 -63 -84 -79 9
-9 23 -9 52 -1 29 7 43 7 48 -1 16 -27 -167 -143 -315 -199 -45 -17 -79 -35
-75 -39 11 -11 189 8 247 25 48 15 130 67 232 147 66 52 95 99 159 254 35 84
38 98 43 221 6 161 -8 263 -54 396 -55 158 -89 222 -157 292 -34 35 -88 93
-119 128 -49 56 -72 72 -170 121 -173 86 -200 94 -328 102 -63 4 -118 4 -122
-1z m292 -124 c0 -5 -4 -10 -9 -10 -6 0 -13 5 -16 10 -3 6 1 10 9 10 9 0 16
-4 16 -10z m-390 -325 c7 -8 18 -15 25 -15 15 0 25 -22 25 -56 0 -17 6 -24 20
-24 11 0 20 7 20 15 0 17 35 55 50 55 13 0 50 -41 50 -57 0 -11 -4 -11 -20 -1
-14 9 -23 9 -30 2 -8 -8 -4 -25 17 -62 22 -40 25 -53 16 -63 -10 -10 -21 -6
-55 17 -24 16 -59 36 -78 45 -62 29 -129 112 -116 145 7 19 60 18 76 -1z m360
-86 c0 -20 -15 -26 -25 -9 -9 15 3 43 15 35 5 -3 10 -15 10 -26z m532 -75 c31
-44 46 -94 29 -94 -6 0 -11 5 -11 10 0 6 -16 34 -35 63 -19 28 -35 56 -35 60
0 18 26 -1 52 -39z m-1305 -113 c-1 -36 -6 -47 -15 -43 -8 2 -11 13 -9 23 3
10 0 20 -5 21 -15 5 1 48 17 48 10 0 13 -13 12 -49z m1373 -78 c0 -37 -17 -26
-24 15 -3 20 -5 44 -5 52 1 22 28 -41 29 -67z m-520 -31 c17 5 30 14 30 19 0
5 9 9 20 9 15 0 22 -9 27 -30 6 -34 33 -53 59 -43 13 5 15 3 9 -7 -13 -21
-140 -8 -168 17 -12 11 -32 26 -45 32 -12 7 -20 16 -17 22 4 5 17 1 31 -10 21
-16 30 -18 54 -9z m-670 -19 c0 -10 -4 -25 -10 -33 -8 -12 -10 -12 -16 3 -7
20 1 47 16 47 5 0 10 -8 10 -17z m860 -7 c0 -2 -7 -7 -16 -10 -8 -3 -12 -2 -9
4 6 10 25 14 25 6z"/>
<path d="M8296 5168 c-12 -200 -12 -386 2 -400 6 -6 12 -33 12 -59 0 -26 4
-50 9 -53 18 -11 30 22 41 107 6 48 15 99 20 113 6 14 10 67 10 117 0 72 -6
109 -25 168 -14 42 -34 84 -44 93 -18 16 -19 13 -25 -86z"/>
<path d="M8451 5205 c1 -19 18 -51 18 -35 0 8 -4 22 -9 30 -5 8 -9 11 -9 5z"/>
<path d="M3608 5194 c-28 -8 -21 -24 15 -31 17 -4 36 -6 41 -5 4 2 14 -2 21
-8 13 -11 105 -2 105 10 0 15 -13 18 -31 7 -15 -9 -21 -8 -32 7 -13 18 -84 30
-119 20z"/>
<path d="M6657 5173 c-14 -13 -6 -40 19 -64 l26 -24 19 24 c23 28 23 35 3 55
-16 16 -55 22 -67 9z"/>
<path d="M3206 5133 c-4 -9 -1 -23 7 -30 12 -12 16 -12 26 1 16 19 8 46 -13
46 -7 0 -17 -8 -20 -17z"/>
<path d="M8472 4912 c-1 -181 1 -239 12 -260 10 -20 14 -83 15 -247 2 -226 3
-218 -44 -435 -5 -22 -3 -21 9 5 9 17 15 41 16 55 0 14 8 37 18 50 15 22 17
54 17 301 0 248 -2 279 -17 296 -15 17 -18 47 -21 244 l-2 224 -3 -233z"/>
<path d="M8193 5066 c-13 -35 -40 -95 -62 -133 -43 -74 -137 -292 -177 -412
-44 -130 -66 -243 -71 -362 -5 -108 -3 -124 21 -200 24 -76 72 -167 81 -157 3
2 -2 26 -10 53 -8 26 -15 79 -15 116 0 57 4 72 23 92 12 13 27 32 33 43 9 15
11 5 6 -50 -4 -62 -3 -68 13 -65 14 3 23 23 36 77 9 40 25 84 33 97 9 14 19
52 23 85 6 60 22 85 21 33 0 -16 5 -54 11 -86 14 -63 10 -103 -20 -212 -35
-128 -16 -145 31 -28 56 138 61 197 61 680 0 241 -3 450 -8 465 -8 26 -9 24
-30 -36z m-123 -900 c-4 -11 -13 -22 -20 -24 -10 -4 -12 6 -7 42 4 26 10 53
14 59 10 16 21 -52 13 -77z m-112 -81 c-3 -3 -9 2 -12 12 -6 14 -5 15 5 6 7
-7 10 -15 7 -18z"/>
<path d="M3146 4967 c-12 -46 43 -104 114 -123 38 -10 46 -9 54 3 13 24 -22
61 -96 103 -63 36 -66 37 -72 17z"/>
<path d="M3380 4973 c0 -13 42 -42 140 -98 47 -26 104 -65 127 -86 24 -22 49
-39 58 -39 19 0 20 -4 -14 72 -35 75 -81 125 -131 138 -56 14 -180 24 -180 13z"/>
<path d="M7851 4951 c-2 -32 -73 -159 -113 -204 -34 -38 -50 -49 -78 -51 -58
-5 -114 -26 -101 -39 16 -16 145 -13 166 4 53 43 96 101 63 84 -7 -4 -4 2 7
12 31 27 72 152 62 189 -3 11 -5 13 -6 5z"/>
<path d="M5790 4875 c0 -50 52 -98 66 -62 2 7 -2 27 -11 43 -8 16 -15 35 -15
42 0 6 -9 12 -20 12 -16 0 -20 -7 -20 -35z"/>
<path d="M5940 4845 c0 -15 50 -102 66 -116 27 -23 78 -46 92 -41 17 5 -37 81
-91 125 -41 34 -67 46 -67 32z"/>
<path d="M1083 4785 c0 -27 2 -38 4 -22 2 15 2 37 0 50 -2 12 -4 0 -4 -28z"/>
<path d="M6554 4746 c-9 -24 3 -46 26 -46 17 0 21 5 18 27 -3 31 -34 44 -44
19z"/>
<path d="M1082 4569 c-2 -74 2 -100 14 -115 15 -19 16 -19 8 1 -4 11 -10 63
-14 115 l-7 95 -1 -96z"/>
<path d="M6894 4561 c-25 -11 -84 -81 -108 -128 -34 -68 -14 -168 47 -230 36
-38 90 -63 104 -49 3 2 -12 20 -32 39 -43 40 -40 62 7 53 24 -5 31 -2 35 14 6
21 47 28 58 10 10 -16 33 -12 39 8 3 9 15 23 26 29 18 12 19 11 13 -20 -4 -23
-3 -29 6 -22 14 14 16 44 7 118 -12 104 -65 174 -136 182 -25 3 -55 1 -66 -4z"/>
<path d="M5803 4424 c6 -140 23 -244 39 -244 5 0 18 21 30 46 15 36 20 66 19
127 -1 71 -5 88 -34 141 -54 99 -61 90 -54 -70z"/>
<path d="M6650 4417 c0 -81 29 -166 76 -224 20 -24 38 -42 40 -40 2 2 -16 47
-40 100 -27 61 -46 119 -50 157 -9 82 -26 87 -26 7z"/>
<path d="M7250 4444 c0 -14 -88 -235 -111 -276 -14 -28 -11 -30 22 -13 34 18
85 92 99 145 8 31 15 114 11 148 -2 18 -21 15 -21 -4z"/>
<path d="M1120 4375 c5 -21 18 -47 30 -59 l21 -21 -22 50 c-28 65 -40 77 -29
30z"/>
<path d="M4327 4343 c-2 -5 -7 -21 -11 -38 l-6 -30 20 24 c21 24 27 51 11 51
-6 0 -12 -3 -14 -7z"/>
<path d="M7464 4258 c-38 -30 -63 -60 -64 -76 0 -7 -8 -30 -19 -51 -24 -52
-30 -191 -7 -191 9 0 16 5 16 12 0 19 51 88 66 88 7 0 22 -16 34 -35 23 -37
41 -44 57 -22 12 14 39 98 46 142 7 39 -11 121 -30 140 -21 22 -66 18 -99 -7z"/>
<path d="M1230 4185 c22 -44 50 -91 61 -105 11 -14 1 11 -23 56 -59 110 -88
148 -38 49z"/>
<path d="M6030 4212 c-27 -22 -19 -42 15 -42 29 0 50 31 33 48 -16 16 -22 15
-48 -6z"/>
<path d="M6435 4158 c16 -76 83 -154 109 -128 8 8 5 22 -13 53 -57 100 -110
141 -96 75z"/>
<path d="M4362 4044 c2 -21 21 -38 87 -80 104 -66 119 -68 91 -15 -23 46 -58
76 -108 92 -20 6 -41 15 -46 20 -18 16 -27 9 -24 -17z"/>
<path d="M1367 3943 c31 -60 60 -112 65 -118 13 -14 -41 98 -80 168 -54 96
-45 63 15 -50z"/>
<path d="M7662 3987 c-16 -35 -43 -78 -59 -97 -62 -72 -64 -110 -4 -110 41 0
68 36 86 115 38 161 28 201 -23 92z"/>
<path d="M6720 3960 c0 -5 8 -14 19 -19 10 -6 38 -27 62 -47 70 -58 79 -60
143 -30 78 37 74 50 -13 55 -24 2 -77 14 -118 27 -82 27 -93 28 -93 14z"/>
<path d="M7290 3937 c0 -32 23 -67 36 -54 10 10 -10 80 -24 85 -8 2 -12 -8
-12 -31z"/>
<path d="M7760 3923 c0 -51 26 -119 53 -142 12 -9 17 -10 17 -2 0 23 -55 191
-62 191 -5 0 -8 -21 -8 -47z"/>
<path d="M6585 3930 c10 -11 24 -20 32 -20 7 0 13 9 13 20 0 16 -7 20 -32 20
-30 0 -31 0 -13 -20z"/>
<path d="M8421 3873 c-1 -6 -4 -20 -7 -30 -5 -17 -5 -17 6 0 6 10 9 23 6 30
-3 9 -5 9 -5 0z"/>
<path d="M7092 3848 c-19 -19 -14 -37 14 -44 30 -8 47 6 42 32 -4 23 -38 30
-56 12z"/>
<path d="M4979 3843 c-50 -4 -61 -9 -98 -45 -38 -36 -41 -42 -28 -56 22 -21
69 -10 147 36 63 37 92 74 53 70 -10 -1 -43 -3 -74 -5z"/>
<path d="M6085 3831 c-28 -12 -48 -38 -42 -55 4 -11 14 -12 49 -3 75 17 99 29
96 46 -4 18 -70 26 -103 12z"/>
<path d="M1442 3799 c8 -22 97 -157 108 -164 9 -5 -94 164 -107 174 -3 3 -4
-1 -1 -10z"/>
<path d="M6310 3782 c-38 -21 -54 -62 -24 -62 10 0 26 7 36 17 10 9 28 21 39
27 12 6 22 16 23 21 2 18 -38 16 -74 -3z"/>
<path d="M7280 3756 c12 -16 78 -41 86 -33 2 2 2 11 -1 20 -7 16 -35 27 -74
27 -19 0 -21 -3 -11 -14z"/>
<path d="M8371 3749 c-5 -13 -16 -42 -26 -64 -33 -76 -76 -220 -80 -267 -3
-26 -16 -75 -30 -108 -14 -32 -25 -68 -25 -79 0 -11 -24 -46 -52 -78 -61 -67
-38 -52 33 22 39 40 49 57 49 85 0 19 9 49 20 65 14 20 20 47 20 83 0 29 7 66
15 81 8 16 19 51 25 77 6 27 24 82 41 123 16 41 27 76 24 79 -2 3 -9 -6 -14
-19z"/>
<path d="M6605 3713 c-63 -14 -130 -42 -207 -85 -47 -27 -110 -56 -140 -65
-29 -8 -71 -20 -93 -26 -34 -10 -40 -16 -40 -39 -1 -35 13 -35 142 -9 94 20
212 71 267 118 16 13 52 36 80 50 70 35 81 44 64 54 -14 9 -39 10 -73 2z"/>
<path d="M5749 3687 c-19 -14 -71 -126 -64 -137 3 -4 36 -15 74 -25 68 -16 71
-16 123 3 69 27 108 46 108 53 0 12 -82 71 -132 94 -59 27 -85 30 -109 12z"/>
<path d="M7703 3657 c-18 -12 -33 -30 -33 -39 0 -25 48 -58 86 -58 44 0 47 28
4 37 -41 8 -48 23 -22 44 48 38 18 52 -35 16z"/>
<path d="M1629 3558 c13 -15 34 -31 45 -34 12 -4 39 -21 61 -37 30 -23 35 -25
20 -8 -11 13 -40 35 -65 49 -25 14 -54 32 -65 41 -14 11 -13 8 4 -11z"/>
<path d="M1770 3446 c0 -2 8 -10 18 -17 15 -13 16 -12 3 4 -13 16 -21 21 -21
13z"/>
<path d="M1800 3402 c0 -6 23 -38 51 -69 86 -97 88 -93 5 12 -56 71 -56 71
-56 57z"/>
<path d="M1920 3248 c0 -13 100 -204 120 -228 11 -14 -8 29 -41 95 -58 112
-79 148 -79 133z"/>
<path d="M8014 2973 c-97 -139 -217 -259 -343 -344 -58 -40 -122 -86 -141
-104 -19 -17 -64 -52 -100 -78 -36 -25 -78 -59 -95 -74 -16 -16 -47 -42 -69
-58 -21 -16 -33 -31 -27 -33 6 -2 50 33 97 77 47 45 92 81 99 81 8 0 43 25 77
56 35 31 74 61 88 67 14 6 40 24 59 40 19 16 48 35 65 43 38 16 258 237 280
281 9 18 29 47 45 65 23 28 47 78 36 78 -2 0 -34 -44 -71 -97z"/>
<path d="M2075 2939 c4 -12 16 -40 27 -63 l19 -41 -7 35 c-7 37 -31 90 -40 90
-3 0 -2 -10 1 -21z"/>
<path d="M2120 2822 c0 -25 59 -137 86 -162 l27 -25 -26 36 c-15 19 -40 64
-56 100 -17 35 -30 58 -31 51z"/>
<path d="M2240 2616 c0 -2 8 -10 18 -17 15 -13 16 -12 3 4 -13 16 -21 21 -21
13z"/>
<path d="M2280 2553 c0 -3 50 -57 112 -120 l112 -113 55 0 c54 1 55 1 31 15
-14 8 -42 14 -64 13 -36 -2 -44 3 -142 104 -57 59 -104 104 -104 101z"/>
<path d="M2690 2296 c14 -9 32 -15 40 -15 13 0 13 1 0 8 -8 5 -26 12 -40 15
l-25 7 25 -15z"/>
<path d="M2785 2259 c22 -10 47 -19 55 -19 9 0 24 -6 35 -14 19 -13 96 -34 85
-23 -3 2 -34 16 -70 30 -124 47 -179 62 -105 26z"/>
<path d="M7090 2133 c-57 -64 -122 -129 -144 -145 -21 -15 -32 -28 -25 -28 14
0 289 270 289 283 0 19 -23 -3 -120 -110z"/>
<path d="M2980 2195 c0 -9 125 -65 161 -71 19 -4 39 -11 45 -15 20 -16 86 -40
79 -29 -10 17 -58 38 -147 66 -46 15 -95 33 -110 40 -16 8 -28 12 -28 9z"/>
<path d="M3419 1927 c19 -20 48 -41 65 -47 36 -12 30 -7 -44 44 l-55 39 34
-36z"/>
<path d="M6836 1923 c-16 -8 -82 -22 -145 -29 l-116 -13 124 4 c117 4 126 6
150 30 29 29 27 30 -13 8z"/>
<path d="M6480 1869 c-127 -23 -137 -28 -45 -22 50 3 101 11 115 19 l25 13
-25 -1 c-14 0 -45 -4 -70 -9z"/>
<path d="M3550 1830 c19 -16 40 -29 45 -29 6 0 -6 13 -25 29 -19 16 -39 29
-45 29 -5 0 6 -13 25 -29z"/>
<path d="M6242 1823 c-24 -8 -41 -17 -38 -20 8 -9 64 8 77 23 6 8 10 14 8 13
-2 0 -23 -7 -47 -16z"/>
<path d="M6117 1761 c-35 -23 -43 -31 -29 -31 6 0 24 11 39 25 33 28 29 31
-10 6z"/>
<path d="M3714 1711 c28 -29 76 -43 76 -21 0 6 -8 10 -17 10 -10 0 -34 10 -53
21 l-35 21 29 -31z"/>
<path d="M5828 1612 c-125 -63 -226 -117 -224 -120 5 -4 445 215 461 229 23
22 -24 1 -237 -109z"/>
<path d="M3833 1667 c14 -21 21 -22 178 -23 90 -1 146 1 124 5 -22 4 -85 8
-139 10 -55 1 -103 4 -108 7 -5 3 -22 10 -39 14 -30 9 -31 9 -16 -13z"/>
<path d="M4367 1619 c7 -7 15 -10 18 -7 3 3 -2 9 -12 12 -14 6 -15 5 -6 -5z"/>
<path d="M4520 1580 c8 -5 22 -9 30 -9 10 0 8 3 -5 9 -27 12 -43 12 -25 0z"/>
<path d="M4578 1563 c7 -3 16 -2 19 1 4 3 -2 6 -13 5 -11 0 -14 -3 -6 -6z"/>
<path d="M4620 1551 c15 -9 159 -47 210 -56 l25 -5 -25 9 c-32 12 -209 61
-218 61 -4 0 0 -5 8 -9z"/>
<path d="M4873 1483 c9 -2 23 -2 30 0 6 3 -1 5 -18 5 -16 0 -22 -2 -12 -5z"/>
<path d="M4949 1465 c18 -8 45 -15 60 -14 23 1 22 2 -9 11 -70 19 -87 20 -51
3z"/>
<path d="M5480 1460 c-12 -8 -11 -10 7 -10 12 0 25 5 28 10 8 13 -15 13 -35 0z"/>
<path d="M5320 1447 c-63 -9 -76 -9 -180 -1 -41 3 -73 3 -69 0 3 -3 31 -6 62
-7 34 -1 62 -8 68 -16 14 -17 24 -16 62 2 18 8 64 16 102 17 42 2 58 5 40 8
-16 3 -55 1 -85 -3z"/>
</g>
</svg>
